<svg width="21" height="20" viewBox="0 0 21 20" fill="none" xmlns="http://www.w3.org/2000/svg">
<g id="shopping--cart" clip-path="url(#clip0_1_8355)">
<path id="Vector" d="M7.00391 18.7568C7.69426 18.7568 8.25391 18.1972 8.25391 17.5068C8.25391 16.8165 7.69426 16.2568 7.00391 16.2568C6.31355 16.2568 5.75391 16.8165 5.75391 17.5068C5.75391 18.1972 6.31355 18.7568 7.00391 18.7568Z" fill="white"/>
<path id="Vector_2" d="M15.7539 18.7568C16.4443 18.7568 17.0039 18.1972 17.0039 17.5068C17.0039 16.8165 16.4443 16.2568 15.7539 16.2568C15.0636 16.2568 14.5039 16.8165 14.5039 17.5068C14.5039 18.1972 15.0636 18.7568 15.7539 18.7568Z" fill="white"/>
<path id="Vector_3" d="M18.2539 4.38196H4.39141L3.87891 1.75696C3.84969 1.61367 3.77114 1.48515 3.65694 1.39379C3.54274 1.30243 3.40012 1.25401 3.25391 1.25696H0.753906V2.50696H2.74141L5.12891 14.507C5.15813 14.6503 5.23667 14.7788 5.35087 14.8701C5.46507 14.9615 5.60769 15.0099 5.75391 15.007H17.0039V13.757H6.26641L5.75391 11.257H17.0039C17.1484 11.2605 17.2896 11.2138 17.4036 11.125C17.5175 11.0361 17.5972 10.9105 17.6289 10.7695L18.8789 5.14446C18.8998 5.05173 18.8994 4.95544 18.8775 4.86292C18.8556 4.7704 18.8129 4.6841 18.7526 4.61057C18.6924 4.53704 18.6161 4.47823 18.5297 4.43862C18.4433 4.399 18.3489 4.37963 18.2539 4.38196ZM16.5039 10.007H5.51641L4.64141 5.63196H17.4727L16.5039 10.007Z" fill="white"/>
</g>
<defs>
<clipPath id="clip0_1_8355">
<rect width="20" height="20" fill="white" transform="translate(0.753906 0.00683594)"/>
</clipPath>
</defs>
</svg>
