<svg width="32" height="33" viewBox="0 0 32 33" fill="none" xmlns="http://www.w3.org/2000/svg">
<g id="road_6088994" clip-path="url(#clip0_351_4520)">
<g id="Group">
<g id="Page-1_43_">
<g id="view_filled_43_">
<path id="road_x2C_-hills_x2C_-slopes_x2C_-highway_x2C_-countryside_x2C_-path" d="M20.2352 33C19.7154 33 19.2941 32.5654 19.2941 32.0294C19.2941 25.6271 18.1595 20.1307 15.8992 15.5297C10.6837 15.5378 5.77912 16.1743 1.18387 17.438C0.681631 17.5761 0.165888 17.2682 0.0320145 16.7503C-0.101921 16.2323 0.196637 15.7005 0.69888 15.5624C3.35316 14.8325 6.10399 14.3051 8.95114 13.9801C9.09833 9.67967 10.8896 5.66739 14.2883 1.96441C9.67076 2.08835 5.30307 2.71721 1.18387 3.84996C0.681631 3.98808 0.165888 3.6802 0.0320145 3.16226C-0.101921 2.64432 0.196637 2.11252 0.69888 1.9744C5.48569 0.658031 10.5867 0.000488281 16 0.000488281C21.4133 0.000488281 26.5143 0.658031 31.3011 1.9744C31.8033 2.11252 32.1019 2.64438 31.968 3.16226C31.834 3.6802 31.3183 3.98808 30.816 3.84996C28.6766 3.26164 26.4702 2.80925 24.1965 2.49292C21.0525 5.84908 19.2919 9.56011 18.8909 13.6523C23.2383 13.8464 27.3753 14.4828 31.3011 15.5624C31.8033 15.7005 32.1019 16.2324 31.968 16.7503C31.834 17.2682 31.3183 17.5761 30.816 17.438C29.0354 16.9483 27.2085 16.5529 25.3349 16.2516C28.1608 20.9399 29.6468 26.3095 29.6468 32.0294C29.6468 32.5654 29.2254 33 28.7056 33H20.2352ZM20.3147 17.4092C20.5088 17.8307 20.6927 18.2587 20.8662 18.6932C21.0641 19.1888 21.6142 19.4251 22.0948 19.221C22.5755 19.0169 22.8046 18.4496 22.6066 17.9539C22.4205 17.4879 22.2233 17.0288 22.015 16.5764C21.792 16.0921 21.2305 15.8861 20.761 16.1161C20.2915 16.346 20.0917 16.9249 20.3147 17.4092ZM22.2404 23.1744C22.3415 23.6295 22.4333 24.0904 22.5156 24.5574C22.6087 25.0848 23.0987 25.4346 23.6101 25.3386C24.1214 25.2426 24.4606 24.7373 24.3676 24.21C24.2801 23.7143 24.1826 23.2246 24.0752 22.7409C23.9591 22.2183 23.4543 21.8918 22.9476 22.0116C22.4409 22.1313 22.1243 22.6519 22.2404 23.1744ZM17.3295 3.21859C17.0243 3.6238 16.7357 4.0341 16.4637 4.44943C16.1729 4.89364 16.2862 5.49698 16.717 5.79694C17.1478 6.0969 17.7328 5.97998 18.0237 5.53571C18.2722 5.15622 18.5363 4.78078 18.8161 4.40934C19.1349 3.98602 19.0606 3.3763 18.6501 3.04747C18.2396 2.71863 17.6483 2.79527 17.3295 3.21859ZM14.2247 8.98661C14.0583 9.46962 13.9113 9.9581 13.7838 10.4521C13.65 10.9701 13.9487 11.5019 14.451 11.6398C14.9533 11.7778 15.4689 11.4697 15.6027 10.9517C15.7172 10.5084 15.8491 10.0699 15.9985 9.63635C16.1725 9.13124 15.9165 8.57631 15.4267 8.39688C14.9367 8.21751 14.3986 8.4815 14.2247 8.98661ZM23.02 29.2551C23.0404 29.7235 23.0528 30.1971 23.057 30.6759C23.0618 31.2119 23.4871 31.6424 24.0068 31.6375C24.5266 31.6325 24.944 31.194 24.9392 30.658C24.9347 30.1563 24.9218 29.6596 24.9004 29.168C24.8771 28.6326 24.4372 28.2179 23.9179 28.242C23.3988 28.266 22.9967 28.7196 23.02 29.2551ZM4.23546 25.4613C3.35584 24.9391 2.82373 23.6934 2.82373 22.3237C2.82373 20.5173 3.74921 18.9266 5.17663 18.9266C6.60405 18.9266 7.52954 20.5172 7.52954 22.3237C7.52954 23.6934 6.99742 24.9391 6.11781 25.4613V26.6913C6.11781 27.2273 5.69644 27.6618 5.17663 27.6618C4.65683 27.6618 4.23546 27.2273 4.23546 26.6913V25.4613ZM11.2942 30.7994C10.4146 30.2772 9.8825 29.0315 9.8825 27.6618C9.8825 25.8554 10.808 24.2648 12.2354 24.2648C13.6628 24.2648 14.5883 25.8554 14.5883 27.6618C14.5883 29.0315 14.0562 30.2772 13.1766 30.7994V32.0294C13.1766 32.5654 12.7552 33 12.2354 33C11.7156 33 11.2942 32.5654 11.2942 32.0294V30.7994ZM26.3528 11.3879C25.4732 10.8657 24.9411 9.62005 24.9411 8.25031C24.9411 6.44397 25.8666 4.85329 27.294 4.85329C28.7214 4.85329 29.6469 6.44391 29.6469 8.25031C29.6469 9.62005 29.1148 10.8657 28.2352 11.3879V12.6179C28.2352 13.154 27.8138 13.5885 27.294 13.5885C26.7742 13.5885 26.3528 13.154 26.3528 12.6179V11.3879ZM3.7649 11.3879C2.88529 10.8657 2.35317 9.62005 2.35317 8.25031C2.35317 6.44397 3.27866 4.85329 4.70608 4.85329C6.13349 4.85329 7.05898 6.44391 7.05898 8.25031C7.05898 9.62005 6.52686 10.8657 5.64725 11.3879V12.6179C5.64725 13.154 5.22588 13.5885 4.70608 13.5885C4.18627 13.5885 3.7649 13.154 3.7649 12.6179V11.3879Z" fill="#F28B30"/>
</g>
</g>
</g>
</g>
<defs>
<clipPath id="clip0_351_4520">
<rect width="32" height="33" fill="white"/>
</clipPath>
</defs>
</svg>
