<svg width="37" height="36" viewBox="0 0 37 36" fill="none" xmlns="http://www.w3.org/2000/svg">
<g id="tire_6955616" clip-path="url(#clip0_351_4508)">
<path id="Vector" d="M18.5 0C13.5951 0.00516162 8.89266 1.90324 5.42438 5.27778C1.95611 8.65231 0.005305 13.2277 0 18C0.925 41.85 36.075 41.8395 37 18C36.9947 13.2277 35.0439 8.65231 31.5756 5.27778C28.1073 1.90324 23.4049 0.00516162 18.5 0ZM18.5 19.5C18.0616 19.5057 17.625 19.556 17.1973 19.65C17.1575 18.8135 16.9224 17.9968 16.5097 17.262C16.8941 17.121 17.2612 16.9389 17.6043 16.719C17.9301 16.4959 18.2304 16.2394 18.5 15.954C19.0431 16.5412 19.7267 16.989 20.4903 17.2575C20.0776 17.9923 19.8425 18.809 19.8027 19.6455C19.3749 19.553 18.9383 19.5042 18.5 19.5ZM27.7947 12.6915L23.4179 14.469C23.0443 14.6132 22.6401 14.6664 22.2405 14.6239C21.8409 14.5815 21.4581 14.4447 21.1252 14.2254C20.7924 14.0061 20.5197 13.711 20.3309 13.3657C20.142 13.0205 20.0427 12.6356 20.0417 12.2445V7.62C21.6417 7.84678 23.169 8.42021 24.5109 9.29797C25.8528 10.1757 26.975 11.3354 27.7947 12.6915ZM16.9583 7.62V12.2445C16.9575 12.635 16.8588 13.0195 16.6707 13.3645C16.4825 13.7095 16.2107 14.0046 15.8788 14.2242C15.5469 14.4438 15.1649 14.5813 14.7661 14.6248C14.3672 14.6682 13.9634 14.6163 13.5898 14.4735L9.18217 12.7275C9.99964 11.3616 11.1235 10.1929 12.4699 9.30851C13.8164 8.42415 15.3507 7.84697 16.9583 7.62ZM8.02746 15.5085L12.082 17.118C12.5478 17.2989 12.9646 17.5812 13.3007 17.9433C13.6368 18.3055 13.883 18.7377 14.0206 19.2069C14.1581 19.676 14.1833 20.1697 14.0942 20.6498C14.0051 21.1299 13.8041 21.5838 13.5065 21.9765L10.8132 25.35C9.52688 24.0756 8.59593 22.5029 8.10845 20.7808C7.62098 19.0587 7.5931 17.244 8.02746 15.5085ZM13.2691 27.1755L16.0333 23.7C16.3311 23.3399 16.7084 23.0496 17.1371 22.8507C17.5659 22.6517 18.0352 22.5493 18.5102 22.5508C18.9853 22.5524 19.4538 22.658 19.8812 22.8598C20.3086 23.0616 20.6838 23.3544 20.979 23.7165L23.7232 27.1815C22.1211 28.0388 20.3222 28.4878 18.4938 28.4868C16.6654 28.4857 14.8671 28.0346 13.266 27.1755H13.2691ZM26.1821 25.3665L23.5104 21.993C23.2076 21.5993 23.0024 21.1428 22.9109 20.6592C22.8194 20.1756 22.8439 19.678 22.9828 19.2051C23.1216 18.7323 23.3708 18.2971 23.7111 17.9335C24.0513 17.5699 24.4733 17.2877 24.9442 17.109L28.9648 15.4725C29.409 17.2158 29.3861 19.0408 28.8983 20.773C28.4106 22.5053 27.4743 24.0868 26.179 25.3665H26.1821Z" fill="#F28B30"/>
</g>
<defs>
<clipPath id="clip0_351_4508">
<rect width="37" height="36" fill="white"/>
</clipPath>
</defs>
</svg>
