<svg width="32" height="32" viewBox="0 0 32 32" fill="none" xmlns="http://www.w3.org/2000/svg">
<path d="M23.936 1.625H7.93603C6.24569 1.62632 4.62495 2.2984 3.42969 3.49366C2.23443 4.68891 1.56236 6.30965 1.56104 8V24C1.56236 25.6903 2.23443 27.3111 3.42969 28.5063C4.62495 29.7016 6.24569 30.3737 7.93603 30.375H23.936C25.6264 30.3737 27.2471 29.7016 28.4424 28.5063C29.6376 27.3111 30.3097 25.6903 30.311 24V8C30.3097 6.30965 29.6376 4.68891 28.4424 3.49366C27.2471 2.2984 25.6264 1.62632 23.936 1.625ZM13.326 5.625H18.546C18.6455 5.625 18.7409 5.66451 18.8112 5.73483C18.8815 5.80516 18.921 5.90054 18.921 6C18.921 6.09946 18.8815 6.19484 18.8112 6.26516C18.7409 6.33549 18.6455 6.375 18.546 6.375H13.326C13.2266 6.375 13.1312 6.33549 13.0609 6.26516C12.9905 6.19484 12.951 6.09946 12.951 6C12.951 5.90054 12.9905 5.80516 13.0609 5.73483C13.1312 5.66451 13.2266 5.625 13.326 5.625ZM22.436 24.5C22.436 24.9973 22.2385 25.4742 21.8869 25.8258C21.5352 26.1775 21.0583 26.375 20.561 26.375H11.291C10.7972 26.3697 10.3254 26.1699 9.97812 25.8188C9.6308 25.4677 9.43601 24.9938 9.43603 24.5V9.395C9.43339 9.14877 9.47928 8.90443 9.57108 8.67593C9.66287 8.44743 9.79878 8.23925 9.97104 8.06328C10.1433 7.88732 10.3485 7.747 10.575 7.65035C10.8015 7.5537 11.0448 7.50261 11.291 7.5H20.581C20.8273 7.50261 21.0706 7.5537 21.2971 7.65035C21.5235 7.747 21.7288 7.88732 21.901 8.06328C22.0733 8.23925 22.2092 8.44743 22.301 8.67593C22.3928 8.90443 22.4387 9.14877 22.436 9.395V24.5Z" fill="#F28B30"/>
<path d="M19.4362 16.0651C19.4076 15.9957 19.3591 15.9364 19.2968 15.8946C19.2345 15.8528 19.1612 15.8303 19.0862 15.8301H17.5012L19.1312 12.3651C19.1605 12.3096 19.1759 12.2478 19.1759 12.1851C19.1759 12.1223 19.1605 12.0606 19.1312 12.0051C19.0972 11.9511 19.0499 11.9067 18.9939 11.8761C18.9379 11.8454 18.875 11.8296 18.8112 11.8301H14.6812C14.6101 11.8305 14.5405 11.8509 14.4804 11.8889C14.4203 11.9269 14.3721 11.981 14.3412 12.0451L12.4612 16.0451C12.4343 16.1022 12.4225 16.1653 12.4268 16.2283C12.4312 16.2914 12.4517 16.3522 12.4862 16.4051C12.5204 16.4577 12.5671 16.5012 12.622 16.5317C12.6769 16.5622 12.7384 16.5788 12.8012 16.5801H13.8012L12.4362 21.8451C12.4165 21.9231 12.4224 22.0054 12.4531 22.0798C12.4838 22.1541 12.5375 22.2167 12.6065 22.2582C12.6754 22.2996 12.7559 22.3178 12.836 22.3101C12.916 22.3023 12.9915 22.269 13.0512 22.2151L19.3212 16.5001C19.3842 16.4493 19.4293 16.3797 19.45 16.3014C19.4707 16.2232 19.4659 16.1404 19.4362 16.0651Z" fill="#F28B30"/>
</svg>
