<svg width="48" height="48" viewBox="0 0 48 48" fill="none" xmlns="http://www.w3.org/2000/svg">
<g clip-path="url(#clip0_96_2136)">
<circle cx="24" cy="24" r="24" fill="#CED2DE"/>
<path d="M28.875 16.5C29.5712 16.5 30.2389 16.7766 30.7312 17.2688C31.2234 17.7611 31.5 18.4288 31.5 19.125C31.5 19.8212 31.2234 20.4889 30.7312 20.9812C30.2389 21.4734 29.5712 21.75 28.875 21.75H26.25V19.125C26.25 18.4288 26.5266 17.7611 27.0188 17.2688C27.5111 16.7766 28.1788 16.5 28.875 16.5V16.5Z" stroke="#2F3546" stroke-width="1.5" stroke-linecap="round" stroke-linejoin="round"/>
<path d="M21.75 21.75H19.125C18.4288 21.75 17.7611 21.4734 17.2688 20.9812C16.7766 20.4889 16.5 19.8212 16.5 19.125C16.5 18.4288 16.7766 17.7611 17.2688 17.2688C17.7611 16.7766 18.4288 16.5 19.125 16.5C19.8212 16.5 20.4889 16.7766 20.9812 17.2688C21.4734 17.7611 21.75 18.4288 21.75 19.125V21.75Z" stroke="#2F3546" stroke-width="1.5" stroke-linecap="round" stroke-linejoin="round"/>
<path d="M26.25 26.25H28.875C29.5712 26.25 30.2389 26.5266 30.7312 27.0188C31.2234 27.5111 31.5 28.1788 31.5 28.875C31.5 29.5712 31.2234 30.2389 30.7312 30.7312C30.2389 31.2234 29.5712 31.5 28.875 31.5C28.1788 31.5 27.5111 31.2234 27.0188 30.7312C26.5266 30.2389 26.25 29.5712 26.25 28.875V26.25Z" stroke="#2F3546" stroke-width="1.5" stroke-linecap="round" stroke-linejoin="round"/>
<path d="M19.125 31.5C18.4288 31.5 17.7611 31.2234 17.2688 30.7312C16.7766 30.2389 16.5 29.5712 16.5 28.875C16.5 28.1788 16.7766 27.5111 17.2688 27.0188C17.7611 26.5266 18.4288 26.25 19.125 26.25H21.75V28.875C21.75 29.5712 21.4734 30.2389 20.9812 30.7312C20.4889 31.2234 19.8212 31.5 19.125 31.5V31.5Z" stroke="#2F3546" stroke-width="1.5" stroke-linecap="round" stroke-linejoin="round"/>
<path d="M26.25 21.75H21.75V26.25H26.25V21.75Z" stroke="#2F3546" stroke-width="1.5" stroke-linecap="round" stroke-linejoin="round"/>
</g>
<defs>
<clipPath id="clip0_96_2136">
<rect width="48" height="48" fill="white"/>
</clipPath>
</defs>
</svg>
