<svg width="32" height="32" viewBox="0 0 32 32" fill="none" xmlns="http://www.w3.org/2000/svg">
<path d="M16.6897 17.9561L16.679 17.9414C16.497 17.7881 16.2619 17.7126 16.0246 17.7313C15.7873 17.75 15.5669 17.8614 15.4112 18.0414C15.2554 18.2214 15.1768 18.4555 15.1924 18.693C15.2079 18.9305 15.3164 19.1524 15.4943 19.3105C15.6722 19.4686 15.9052 19.5504 16.1429 19.538C16.3806 19.5256 16.6039 19.4201 16.7644 19.2443C16.9248 19.0685 17.0097 18.8366 17.0004 18.5987C16.9912 18.3609 16.8887 18.1362 16.715 17.9734C16.707 17.9654 16.6964 17.9641 16.6897 17.9561Z" fill="#F28B30"/>
<path d="M24.0001 1.66699H8.00008C6.32103 1.66911 4.71135 2.33705 3.52408 3.52432C2.3368 4.71159 1.66886 6.32127 1.66675 8.00033V24.0003C1.66886 25.6794 2.3368 27.2891 3.52408 28.4763C4.71135 29.6636 6.32103 30.3315 8.00008 30.3337H24.0001C25.6791 30.3315 27.2888 29.6636 28.4761 28.4763C29.6634 27.2891 30.3313 25.6794 30.3334 24.0003V8.00033C30.3313 6.32127 29.6634 4.71159 28.4761 3.52432C27.2888 2.33705 25.6791 1.66911 24.0001 1.66699ZM7.66675 16.0003C7.66675 16.2655 7.56139 16.5199 7.37385 16.7074C7.18632 16.895 6.93196 17.0003 6.66675 17.0003C6.40153 17.0003 6.14718 16.895 5.95964 16.7074C5.7721 16.5199 5.66675 16.2655 5.66675 16.0003C5.66992 13.2607 6.75963 10.6343 8.69682 8.69706C10.634 6.75988 13.2605 5.67017 16.0001 5.66699C17.3696 5.66325 18.7259 5.93533 19.9881 6.46699C20.1122 6.51573 20.2254 6.58882 20.3209 6.68195C20.4164 6.77508 20.4923 6.88638 20.5441 7.00928C20.5959 7.13218 20.6226 7.26421 20.6227 7.3976C20.6227 7.53098 20.5961 7.66303 20.5443 7.78596C20.4925 7.90889 20.4167 8.02022 20.3212 8.11339C20.2258 8.20657 20.1127 8.27971 19.9885 8.32851C19.8644 8.37731 19.7317 8.40078 19.5984 8.39755C19.4651 8.39431 19.3337 8.36443 19.2121 8.30966C18.1953 7.88243 17.103 7.66388 16.0001 7.66699C13.7907 7.66946 11.6725 8.54823 10.1103 10.1105C8.54798 11.6728 7.66922 13.7909 7.66675 16.0003ZM24.7161 11.151L18.6801 17.3457C18.8879 17.7553 18.9974 18.2077 19.0001 18.667C19.0001 19.2603 18.8241 19.8404 18.4945 20.3337C18.1648 20.8271 17.6963 21.2116 17.1481 21.4386C16.6 21.6657 15.9968 21.7251 15.4148 21.6094C14.8329 21.4936 14.2983 21.2079 13.8788 20.7883C13.4592 20.3688 13.1735 19.8342 13.0577 19.2523C12.942 18.6703 13.0014 18.0671 13.2284 17.5189C13.4555 16.9708 13.84 16.5022 14.3334 16.1726C14.8267 15.8429 15.4067 15.667 16.0001 15.667C16.432 15.6689 16.8584 15.7649 17.2494 15.9483L23.2841 9.75499C23.47 9.56874 23.7218 9.46328 23.985 9.46149C24.2482 9.4597 24.5014 9.56171 24.6899 9.74542C24.8783 9.92912 24.9867 10.1797 24.9916 10.4428C24.9966 10.7059 24.8975 10.9604 24.7161 11.151Z" fill="#F28B30"/>
</svg>
