<svg width="21" height="20" viewBox="0 0 21 20" fill="none" xmlns="http://www.w3.org/2000/svg">
<path fill-rule="evenodd" clip-rule="evenodd" d="M5.63876 2.72464C7.07769 1.76318 8.76942 1.25 10.5 1.25C12.8198 1.25261 15.0439 2.17533 16.6843 3.8157C18.3247 5.45608 19.2474 7.68016 19.25 10C19.25 11.7306 18.7368 13.4223 17.7754 14.8612C16.8139 16.3002 15.4473 17.4217 13.8485 18.0839C12.2496 18.7462 10.4903 18.9195 8.79296 18.5819C7.09563 18.2442 5.53653 17.4109 4.31282 16.1872C3.08911 14.9635 2.25575 13.4044 1.91813 11.707C1.58051 10.0097 1.75379 8.25037 2.41606 6.65152C3.07832 5.05267 4.19983 3.6861 5.63876 2.72464ZM6.75 15.625V16.4853C7.88802 17.1498 9.18218 17.5 10.5 17.5C11.8178 17.5 13.112 17.1498 14.25 16.4853V15.625C14.2495 15.1279 14.0517 14.6513 13.7002 14.2998C13.3487 13.9483 12.8721 13.7505 12.375 13.75H8.625C8.12789 13.7505 7.65129 13.9483 7.29978 14.2998C6.94827 14.6513 6.75055 15.1279 6.75 15.625ZM14.5652 13.4008C15.1488 13.9766 15.4829 14.7588 15.4953 15.5786C16.6287 14.5666 17.428 13.2342 17.7873 11.7578C18.1466 10.2814 18.049 8.73071 17.5074 7.31104C16.9658 5.89136 16.0058 4.66967 14.7545 3.80773C13.5031 2.94579 12.0195 2.48427 10.5 2.48427C8.98053 2.48427 7.49689 2.94579 6.24555 3.80773C4.9942 4.66967 4.03418 5.89136 3.49259 7.31104C2.951 8.73071 2.8534 10.2814 3.21271 11.7578C3.57202 13.2342 4.37129 14.5666 5.50469 15.5786C5.51712 14.7588 5.85116 13.9766 6.43483 13.4008C7.0185 12.8249 7.80507 12.5014 8.625 12.5H12.375C13.1949 12.5014 13.9815 12.8249 14.5652 13.4008ZM8.76384 5.52666C9.27775 5.18328 9.88194 5 10.5 5C11.3288 5 12.1237 5.32924 12.7097 5.91529C13.2958 6.50134 13.625 7.2962 13.625 8.125C13.625 8.74307 13.4417 9.34725 13.0983 9.86116C12.755 10.3751 12.2669 10.7756 11.6959 11.0121C11.1249 11.2486 10.4965 11.3105 9.89034 11.19C9.28415 11.0694 8.72733 10.7717 8.29029 10.3347C7.85325 9.89767 7.55563 9.34085 7.43505 8.73466C7.31447 8.12847 7.37635 7.50013 7.61288 6.92911C7.8494 6.3581 8.24994 5.87004 8.76384 5.52666ZM9.45831 9.684C9.76665 9.89003 10.1292 10 10.5 10C10.9971 9.99944 11.4737 9.80171 11.8252 9.4502C12.1767 9.09869 12.3744 8.62211 12.375 8.125C12.375 7.75416 12.265 7.39165 12.059 7.08331C11.853 6.77496 11.5601 6.53464 11.2175 6.39273C10.8749 6.25081 10.4979 6.21368 10.1342 6.28603C9.77049 6.35837 9.4364 6.53695 9.17418 6.79917C8.91195 7.0614 8.73338 7.39549 8.66103 7.75921C8.58868 8.12292 8.62581 8.49992 8.76773 8.84253C8.90964 9.18514 9.14996 9.47798 9.45831 9.684Z" fill="#D7D7D7"/>
</svg>
