<svg width="430" height="899" viewBox="0 0 430 899" fill="none" xmlns="http://www.w3.org/2000/svg">
<path d="M-240.44 436.452L-315.445 381.687L674.349 445.989L744.739 497.385L-240.44 436.452Z" fill="#D9D9D9" stroke="#838383"/>
<path d="M116.363 432.43L113.258 432.232C113.223 431.826 113.126 431.462 112.968 431.139C112.81 430.811 112.599 430.527 112.337 430.287C112.075 430.047 111.767 429.857 111.414 429.716C111.066 429.575 110.684 429.491 110.268 429.464C109.517 429.416 108.853 429.561 108.275 429.899C107.698 430.232 107.238 430.743 106.893 431.433C106.549 432.118 106.35 432.964 106.296 433.971C106.242 435.007 106.349 435.886 106.619 436.611C106.894 437.335 107.3 437.895 107.839 438.29C108.378 438.685 109.013 438.906 109.746 438.953C110.157 438.979 110.54 438.949 110.895 438.862C111.255 438.776 111.578 438.638 111.863 438.448C112.148 438.252 112.389 438.009 112.584 437.718C112.785 437.427 112.93 437.09 113.022 436.707L116.126 436.92C116.01 437.581 115.775 438.212 115.421 438.81C115.072 439.405 114.615 439.928 114.051 440.381C113.491 440.829 112.833 441.171 112.076 441.407C111.325 441.639 110.483 441.725 109.552 441.666C108.258 441.583 107.115 441.216 106.126 440.564C105.141 439.913 104.382 439.013 103.851 437.864C103.323 436.715 103.101 435.351 103.185 433.772C103.269 432.188 103.638 430.86 104.292 429.786C104.946 428.713 105.799 427.919 106.85 427.402C107.902 426.881 109.065 426.662 110.341 426.743C111.182 426.797 111.956 426.965 112.661 427.248C113.372 427.53 113.994 427.916 114.527 428.406C115.061 428.891 115.486 429.471 115.801 430.146C116.121 430.821 116.308 431.582 116.363 432.43ZM131.788 435.602C131.704 437.186 131.333 438.514 130.674 439.587C130.02 440.66 129.162 441.457 128.101 441.977C127.045 442.493 125.877 442.71 124.596 442.628C123.306 442.546 122.164 442.178 121.17 441.527C120.175 440.875 119.41 439.974 118.873 438.825C118.336 437.676 118.11 436.311 118.193 434.732C118.277 433.148 118.646 431.82 119.3 430.747C119.954 429.674 120.809 428.879 121.865 428.363C122.922 427.842 124.095 427.623 125.385 427.706C126.665 427.788 127.803 428.155 128.797 428.807C129.797 429.454 130.565 430.352 131.101 431.502C131.643 432.651 131.871 434.018 131.788 435.602ZM128.676 435.403C128.73 434.377 128.623 433.502 128.353 432.778C128.087 432.054 127.688 431.492 127.154 431.093C126.621 430.693 125.983 430.47 125.241 430.422C124.499 430.375 123.842 430.515 123.27 430.844C122.698 431.173 122.24 431.68 121.896 432.364C121.556 433.05 121.359 433.905 121.305 434.931C121.251 435.957 121.356 436.832 121.621 437.556C121.891 438.28 122.293 438.842 122.827 439.241C123.36 439.641 123.998 439.864 124.74 439.912C125.482 439.959 126.139 439.819 126.711 439.49C127.283 439.161 127.739 438.654 128.078 437.969C128.423 437.284 128.622 436.429 128.676 435.403ZM134.445 428.485L138.23 428.727L141.712 438.742L141.882 438.753L146.395 429.249L150.18 429.491L149.412 444.017L146.435 443.826L146.935 434.372L146.814 434.364L142.562 443.507L140.535 443.378L137.276 433.719L137.156 433.711L136.654 443.2L133.677 443.01L134.445 428.485ZM155.777 429.85L155.01 444.375L151.941 444.178L152.708 429.653L155.777 429.85ZM170.444 430.788L169.676 445.313L167.025 445.143L161.193 435.597L161.087 435.591L160.604 444.733L157.535 444.536L158.302 430.011L160.996 430.183L166.779 439.719L166.906 439.727L167.389 430.592L170.444 430.788ZM182.356 436.261C182.276 435.91 182.152 435.596 181.987 435.319C181.821 435.038 181.614 434.797 181.364 434.596C181.118 434.391 180.833 434.228 180.507 434.107C180.187 433.987 179.828 433.915 179.431 433.889C178.689 433.842 178.027 433.984 177.445 434.317C176.868 434.65 176.405 435.159 176.056 435.844C175.707 436.524 175.506 437.369 175.453 438.381C175.399 439.393 175.507 440.263 175.777 440.992C176.047 441.721 176.453 442.29 176.995 442.7C177.538 443.105 178.192 443.332 178.958 443.381C179.652 443.425 180.252 443.34 180.756 443.126C181.266 442.907 181.662 442.579 181.946 442.141C182.235 441.704 182.395 441.176 182.428 440.557L183.047 440.689L179.305 440.449L179.427 438.137L185.501 438.526L185.404 440.356C185.337 441.632 185.01 442.712 184.422 443.595C183.836 444.473 183.056 445.13 182.085 445.566C181.114 445.997 180.019 446.174 178.8 446.096C177.439 446.009 176.259 445.632 175.261 444.966C174.263 444.295 173.505 443.385 172.987 442.237C172.475 441.085 172.259 439.743 172.34 438.211C172.402 437.033 172.627 435.994 173.016 435.094C173.41 434.19 173.934 433.435 174.587 432.832C175.24 432.229 175.986 431.785 176.826 431.502C177.666 431.219 178.566 431.108 179.525 431.17C180.347 431.222 181.106 431.392 181.802 431.678C182.498 431.96 183.109 432.336 183.634 432.806C184.164 433.276 184.588 433.823 184.906 434.446C185.224 435.064 185.414 435.736 185.475 436.461L182.356 436.261ZM200.436 436.898C200.41 436.323 200.19 435.863 199.777 435.518C199.364 435.174 198.788 434.978 198.051 434.931C197.55 434.899 197.124 434.943 196.771 435.063C196.419 435.178 196.144 435.352 195.947 435.586C195.755 435.821 195.65 436.094 195.634 436.406C195.61 436.665 195.653 436.896 195.761 437.097C195.873 437.299 196.032 437.478 196.237 437.633C196.443 437.784 196.682 437.92 196.955 438.042C197.229 438.159 197.522 438.263 197.835 438.354L199.122 438.75C199.748 438.932 200.319 439.159 200.836 439.429C201.353 439.699 201.796 440.019 202.165 440.389C202.534 440.759 202.813 441.185 203.001 441.667C203.193 442.149 203.276 442.692 203.249 443.298C203.197 444.187 202.929 444.943 202.446 445.566C201.968 446.186 201.298 446.648 200.438 446.954C199.583 447.255 198.565 447.368 197.384 447.292C196.212 447.217 195.201 446.972 194.35 446.557C193.505 446.143 192.857 445.567 192.408 444.832C191.963 444.092 191.757 443.198 191.788 442.152L194.758 442.342C194.765 442.831 194.883 443.247 195.112 443.589C195.345 443.926 195.665 444.191 196.072 444.383C196.485 444.571 196.955 444.681 197.484 444.715C198.004 444.749 198.459 444.702 198.85 444.575C199.246 444.448 199.557 444.257 199.784 444.001C200.011 443.745 200.133 443.443 200.152 443.093C200.169 442.766 200.087 442.486 199.905 442.251C199.727 442.017 199.459 441.81 199.098 441.63C198.743 441.451 198.304 441.281 197.781 441.119L196.222 440.621C195.013 440.245 194.072 439.717 193.396 439.038C192.721 438.359 192.414 437.483 192.476 436.41C192.517 435.531 192.792 434.777 193.299 434.15C193.811 433.524 194.493 433.052 195.344 432.737C196.195 432.421 197.15 432.297 198.208 432.365C199.286 432.434 200.216 432.678 201 433.099C201.788 433.519 202.39 434.072 202.804 434.758C203.218 435.444 203.409 436.22 203.378 437.086L200.436 436.898ZM218.817 441.17C218.733 442.754 218.362 444.082 217.703 445.155C217.049 446.228 216.191 447.025 215.13 447.545C214.074 448.061 212.906 448.278 211.625 448.196C210.335 448.114 209.193 447.746 208.199 447.094C207.204 446.443 206.439 445.542 205.902 444.393C205.366 443.244 205.139 441.879 205.222 440.3C205.306 438.716 205.675 437.388 206.329 436.315C206.983 435.242 207.838 434.447 208.894 433.931C209.951 433.41 211.124 433.191 212.414 433.274C213.694 433.356 214.832 433.723 215.826 434.375C216.826 435.022 217.594 435.92 218.13 437.07C218.672 438.219 218.9 439.586 218.817 441.17ZM215.705 440.971C215.759 439.945 215.652 439.07 215.382 438.345C215.117 437.622 214.717 437.06 214.184 436.661C213.65 436.261 213.012 436.038 212.27 435.99C211.529 435.943 210.872 436.083 210.299 436.412C209.727 436.741 209.269 437.248 208.925 437.932C208.585 438.618 208.388 439.473 208.334 440.499C208.28 441.525 208.385 442.4 208.65 443.124C208.92 443.848 209.322 444.41 209.856 444.809C210.389 445.209 211.027 445.432 211.769 445.48C212.511 445.527 213.168 445.387 213.74 445.058C214.312 444.729 214.768 444.222 215.107 443.537C215.452 442.852 215.651 441.997 215.705 440.971ZM234.429 442.169C234.346 443.753 233.974 445.081 233.316 446.154C232.661 447.227 231.804 448.024 230.743 448.544C229.687 449.06 228.518 449.277 227.238 449.195C225.948 449.112 224.806 448.745 223.811 448.093C222.817 447.441 222.051 446.541 221.515 445.392C220.978 444.242 220.752 442.878 220.835 441.299C220.919 439.715 221.288 438.386 221.942 437.313C222.596 436.24 223.451 435.446 224.507 434.93C225.563 434.409 226.737 434.19 228.027 434.273C229.307 434.355 230.445 434.721 231.439 435.373C232.438 436.021 233.206 436.919 233.743 438.068C234.284 439.218 234.513 440.585 234.429 442.169ZM231.318 441.97C231.372 440.944 231.264 440.068 230.994 439.344C230.729 438.62 230.33 438.059 229.796 437.659C229.263 437.26 228.625 437.036 227.883 436.989C227.141 436.942 226.484 437.082 225.912 437.411C225.34 437.74 224.882 438.246 224.537 438.931C224.198 439.616 224.001 440.472 223.947 441.498C223.892 442.524 223.998 443.399 224.263 444.123C224.533 444.847 224.935 445.409 225.468 445.808C226.002 446.208 226.64 446.431 227.381 446.479C228.123 446.526 228.78 446.385 229.352 446.057C229.924 445.728 230.38 445.221 230.72 444.536C231.064 443.851 231.264 442.996 231.318 441.97ZM249.228 435.828L248.46 450.354L245.809 450.184L239.977 440.638L239.871 440.631L239.388 449.773L236.319 449.577L237.087 435.052L239.78 435.224L245.563 444.76L245.69 444.768L246.173 435.633L249.228 435.828Z" fill="#F28B30"/>
</svg>
