<svg width="183" height="26" viewBox="0 0 183 26" fill="none" xmlns="http://www.w3.org/2000/svg">
<path d="M0.0214844 0.926246C0.881159 0.274201 1.81744 0.0237453 2.91118 0.0582908C5.6349 0.148973 8.35862 0.136019 11.0823 0.161928C11.0823 1.60852 11.0781 3.05943 11.0738 4.50602C9.58855 4.51466 8.10753 4.54488 6.62225 4.52761C5.57958 4.51897 5.05186 4.93784 5.07314 6.05625C5.10718 7.70147 5.11144 9.35102 5.07314 10.9962C5.0476 11.9333 5.29018 12.2356 6.29455 12.0412C7.8692 11.739 9.48216 11.6397 11.0823 11.454C11.0823 12.8919 11.0909 14.3299 11.0909 15.7678C9.72474 16.0874 8.33735 16.3422 6.99251 16.7437C5.29018 17.2533 5.11569 17.5512 5.09016 19.3174C5.07314 20.3926 4.94121 21.4937 5.11569 22.5387C5.60937 25.5528 2.8899 26.084 0.723694 25.0649C0.476857 24.9483 0.255554 24.7842 0.0214844 24.6417V0.926246Z" fill="#F28B30"/>
<path d="M182.613 6.88965C182.736 6.88965 182.855 6.91556 182.975 6.96306V19.4685C182.86 19.5117 182.74 19.5333 182.617 19.5419C182.617 15.3231 182.617 11.1085 182.617 6.88965H182.613Z" fill="#F9D759"/>
<path d="M11.095 15.7724C11.095 14.3345 11.0865 12.8965 11.0865 11.4585C12.9718 11.2599 14.8699 11.152 16.7382 10.8367C17.9681 10.6295 19.2534 10.3185 20.3216 9.714C22.1048 8.70355 22.1261 6.65673 20.3727 5.57718C19.5258 5.05469 18.4065 4.84741 17.3894 4.76105C15.2912 4.584 13.1804 4.584 11.0737 4.51059C11.0737 3.064 11.078 1.61309 11.0822 0.166504C14.1762 0.27014 17.283 0.235595 20.3599 0.537868C22.2112 0.719231 23.7858 1.82469 25.0328 3.27991C27.7182 6.40628 27.2075 10.8195 23.8922 13.242C23.6624 13.4104 23.4496 13.6176 23.1943 13.7299C22.1814 14.179 22.6495 14.5417 23.1602 15.0945C24.3051 16.3381 25.5648 17.5515 26.3861 19.0024C27.0926 20.2547 27.399 21.7963 27.6118 23.2515C27.8033 24.5815 27.0926 25.307 25.901 25.484C24.0029 25.7604 22.9134 25.3545 22.6198 23.977C21.5047 18.8167 17.7554 16.9556 13.1931 16.0617C12.4994 15.9279 11.793 15.8717 11.095 15.7767V15.7724Z" fill="#F28E29"/>
<path d="M182.613 6.88996C182.613 11.1088 182.613 15.3234 182.613 19.5422C181.51 23.0184 178.387 25.3416 174.416 25.4581C171.739 25.5359 169.058 25.4279 166.381 25.402C166.462 25.0004 166.458 24.5427 166.645 24.2016C167.224 23.1566 167.879 22.1547 168.5 21.1313C169.628 21.1141 170.756 21.127 171.88 21.0666C172.999 21.0061 174.135 20.9888 175.225 20.747C177.016 20.3541 177.829 19.2529 177.842 17.4091C177.863 14.4813 177.791 11.5493 177.867 8.62156C177.91 7.01519 177.165 6.01337 175.803 5.49951C174.901 5.15837 173.901 4.9986 172.935 4.93815C171.318 4.83451 169.696 4.87769 168.075 4.8561C168.1 4.25587 167.828 4.05724 167.232 3.91042C166.185 3.65133 166.079 3.28428 166.909 2.66678C167.692 2.08383 167.654 1.38428 167.654 0.611328C170.662 0.719283 173.735 0.486101 176.667 1.03451C179.693 1.60019 182.042 3.46996 182.608 6.89428L182.613 6.88996Z" fill="#F8C005"/>
<path d="M48.5292 0.610947C52.0572 0.58072 55.6023 0.122992 59.0921 0.956401C60.9306 1.39254 62.4712 2.40299 63.6543 3.90572C64.6076 5.11049 65.1524 6.45777 65.1268 8.05549C65.0758 11.143 64.9779 14.2348 65.1524 17.3137C65.3269 20.453 63.8458 22.5732 61.403 24.0198C60.105 24.7884 58.5133 25.2721 57.0153 25.4059C54.6277 25.6175 52.2104 25.4232 49.8016 25.4016C49.6059 24.3869 50.3336 23.8687 50.9252 23.2944C51.5423 22.6941 52.1296 22.1025 51.9253 21.1266C53.334 21.1094 54.7426 21.1353 56.1513 21.0662C58.9474 20.9323 60.2582 19.5505 60.2709 16.7782C60.2837 14.278 60.2837 11.7821 60.2709 9.28186C60.2582 6.57436 58.8665 5.09322 56.1556 4.93345C55.032 4.86867 53.9043 4.88595 52.7765 4.86436C53.1893 3.49549 51.6912 3.23208 51.3423 2.30367C51.0529 1.53936 50.5251 1.25867 49.725 1.34504C49.1888 1.40117 48.5462 1.48754 48.5249 0.610947H48.5292Z" fill="#F39C21"/>
<path d="M167.662 0.611132C167.662 1.38409 167.7 2.08795 166.917 2.66659C166.087 3.28409 166.198 3.65113 167.241 3.91022C167.836 4.05704 168.109 4.25568 168.083 4.8559C166.526 4.87749 164.964 4.88181 163.406 4.925C161.84 4.96818 161.648 5.12363 161.64 6.63931C161.614 10.8798 161.614 15.1202 161.64 19.3564C161.648 20.872 161.836 21.0232 163.402 21.0664C165.1 21.1095 166.802 21.1139 168.505 21.1311C167.879 22.1502 167.228 23.152 166.649 24.2014C166.458 24.5425 166.466 25.0002 166.385 25.4018C163.84 25.432 161.295 25.4968 158.754 25.4709C157.205 25.4579 156.605 24.8361 156.597 23.2168C156.571 16.407 156.571 9.59727 156.597 2.78749C156.605 1.17249 157.205 0.546359 158.759 0.533405C161.725 0.511814 164.696 0.580905 167.662 0.611132Z" fill="#F7BC0C"/>
<path d="M48.5289 0.611173C48.5502 1.48776 49.1928 1.4014 49.729 1.34526C50.5291 1.2589 51.0568 1.53958 51.3462 2.3039C51.6952 3.23231 53.1933 3.49572 52.7804 4.86458C50.3844 4.88186 47.9884 4.87754 45.5966 4.92504C44.0943 4.95527 43.89 5.1539 43.8815 6.67822C43.856 10.8928 43.856 15.1073 43.8815 19.3175C43.89 20.8462 44.0901 21.0362 45.5924 21.0664C47.7033 21.1096 49.8184 21.1053 51.9335 21.1225C52.1378 22.1028 51.5505 22.6944 50.9334 23.2903C50.3419 23.8646 49.6099 24.3828 49.8099 25.3975C46.8861 25.4234 43.9624 25.458 41.0387 25.4753C40.1449 25.4796 39.3831 25.2334 39.1235 24.2187C39.2767 23.7912 39.5661 23.3637 39.5661 22.9319C39.5959 16.3078 39.5959 9.68367 39.5661 3.05958C39.5661 2.62777 39.281 2.20026 39.1278 1.76845C39.3704 0.740719 40.1534 0.511855 41.0344 0.516173C43.5368 0.529127 46.035 0.57231 48.5374 0.602537L48.5289 0.611173Z" fill="#F39624"/>
<path d="M107.242 16.2949C106.221 16.5626 105.183 16.7829 104.178 17.1154C103.131 17.4565 102.553 18.1776 102.616 19.3781C102.672 20.4533 102.646 21.5329 102.625 22.6081C102.591 24.4045 101.65 25.5013 100.199 25.484C98.7691 25.4667 97.8158 24.357 97.7946 22.552C97.7605 19.5379 97.7861 16.5195 97.7861 13.5054C97.7861 10.0595 97.769 6.61355 97.7903 3.16764C97.8073 0.995597 98.267 0.546505 100.446 0.533551C101.718 0.524914 102.991 0.585368 104.263 0.615595C104.387 1.7815 105.289 1.34537 105.876 1.34537C109.677 1.34537 109.375 1.08628 109.366 4.869C107.74 4.88628 106.115 4.8906 104.489 4.92514C103.021 4.95969 102.684 5.22741 102.633 6.62219C102.574 8.26741 102.629 9.91696 102.616 11.5665C102.608 12.3092 102.833 12.6029 103.634 12.387C104.374 12.1883 105.161 12.1581 105.927 12.0501C107.034 12.849 107.515 12.7886 108.094 11.7867C108.66 11.7565 109.23 11.722 109.796 11.6917C109.711 13.527 109.49 15.2801 107.353 15.9063C107.285 15.9279 107.277 16.1654 107.242 16.2992V16.2949Z" fill="#F5A916"/>
<path d="M138.301 25.4365C136.186 25.5747 134.096 25.6481 132.079 24.7154C128.891 23.2429 127.087 20.8161 126.985 17.245C126.904 14.4554 126.895 11.6615 126.985 8.87631C127.138 4.18245 130.7 0.732224 135.501 0.546542C136.411 0.511997 137.331 0.624269 138.246 0.667451C138.416 2.07086 138.586 3.46995 138.756 4.87336C137.786 4.95109 136.82 5.05041 135.85 5.10654C133.462 5.25336 132.241 6.497 132.215 8.90654C132.185 11.627 132.194 14.3475 132.215 17.0722C132.232 19.3609 133.122 20.4793 135.364 20.8895C136.467 21.0924 137.603 21.0838 138.727 21.1702C138.586 22.5909 138.446 24.0115 138.301 25.4365Z" fill="#F6B20F"/>
<path d="M80.0135 4.86909C79.0985 4.88636 78.1835 4.87772 77.2685 4.93386C74.7449 5.085 73.2553 6.64818 73.234 9.17863C73.217 11.6789 73.2213 14.1791 73.234 16.6793C73.2468 19.5423 74.6725 21.0191 77.4771 21.1098C78.0389 21.127 78.6006 21.1486 79.1666 21.1702C79.1666 22.5952 79.1666 24.0159 79.1666 25.4409C76.6429 25.7302 74.2299 25.4582 72.0254 24.0634C69.8762 22.7032 68.4548 20.8636 68.3101 18.1993C68.5228 17.897 68.9186 17.5991 68.9229 17.2968C68.9697 14.2568 68.9612 11.2168 68.9229 8.17682C68.9229 7.90477 68.5995 7.63704 68.425 7.365C68.5441 4.08318 72.0254 0.904997 76.4429 0.56386C77.626 0.473178 78.8262 0.58977 80.0135 0.61136C80.0135 2.03204 80.0135 3.45272 80.0135 4.86909Z" fill="#F49F1C"/>
<path d="M109.366 4.86009C109.374 1.07736 109.677 1.34077 105.876 1.33645C105.289 1.33645 104.387 1.77259 104.263 0.606679C108.14 0.585088 112.022 0.498725 115.899 0.567816C118.239 0.610997 120.278 1.65168 121.967 3.25373C124.921 6.05191 124.559 10.9271 121.316 13.4015C119.801 14.5544 118.061 15.159 116.256 15.4094C113.268 15.824 110.247 16.0096 107.238 16.2903C107.272 16.1565 107.281 15.919 107.349 15.8974C109.485 15.2712 109.702 13.5224 109.791 11.6828C111.255 11.5317 112.728 11.4453 114.179 11.2078C115.277 11.0265 116.418 10.8149 117.409 10.3355C119.508 9.32941 119.622 6.99327 117.605 5.82736C116.677 5.28759 115.507 5.04577 114.422 4.94645C112.749 4.791 111.055 4.87304 109.366 4.85577V4.86009Z" fill="#F6AD14"/>
<path d="M35.7873 13.1725C35.7873 16.26 35.8044 19.3475 35.7788 22.435C35.7618 24.3782 34.7957 25.5138 33.2679 25.4793C31.7145 25.4491 30.7229 24.3263 30.7187 22.4134C30.6931 16.165 30.7101 9.9209 30.7101 3.67249C30.7101 3.38749 30.6889 3.09385 30.7357 2.81317C30.9825 1.41408 32.072 0.481349 33.3956 0.520213C34.6851 0.559077 35.7448 1.5868 35.7661 3.04635C35.8214 6.41885 35.7831 9.79567 35.7831 13.1682H35.7873V13.1725Z" fill="#F29429"/>
<path d="M86.5248 15.2065C84.6862 15.2065 82.8435 15.2411 81.005 15.1936C79.6303 15.159 78.826 14.3731 78.7536 13.1467C78.677 11.8772 79.558 10.8667 81.005 10.8451C84.8267 10.7847 88.6484 10.7847 92.4701 10.8451C93.8575 10.8667 94.547 11.7045 94.5512 13.0301C94.5512 14.3774 93.8788 15.1504 92.4701 15.1936C90.4912 15.254 88.508 15.2108 86.5248 15.2108V15.2065Z" fill="#F4A318"/>
<path d="M145.43 15.211C143.659 15.211 141.889 15.2326 140.119 15.2024C138.672 15.1765 137.603 14.3171 137.54 13.1987C137.467 11.9378 138.527 10.8496 140.012 10.8324C143.694 10.7935 147.379 10.7935 151.06 10.8324C152.546 10.8496 153.601 11.9335 153.529 13.1987C153.465 14.3171 152.397 15.1808 150.954 15.2067C149.111 15.2369 147.273 15.2153 145.43 15.211Z" fill="#F7B60A"/>
<path d="M79.1582 25.4365C79.1582 24.0115 79.1582 22.5908 79.1582 21.1658C83.4566 21.1443 87.7592 21.1054 92.0576 21.114C93.5301 21.114 94.2408 21.6279 94.4962 22.6729C94.8877 24.2706 93.994 25.484 92.2704 25.4927C87.8996 25.5143 83.5289 25.4624 79.1582 25.4365Z" fill="#F4A317"/>
<path d="M138.752 4.87329C138.582 3.46988 138.412 2.07079 138.242 0.667382C142.553 0.619882 146.864 0.537838 151.175 0.542156C152.533 0.542156 153.533 1.61738 153.529 2.81352C153.524 4.02693 152.597 4.89488 151.073 4.90352C146.966 4.92943 142.859 4.88625 138.752 4.87329Z" fill="#F7B60A"/>
<path d="M138.301 25.4365C138.442 24.0158 138.582 22.5951 138.727 21.1701C142.829 21.1485 146.928 21.1054 151.03 21.1226C152.558 21.1313 153.503 21.982 153.529 23.1824C153.558 24.4735 152.528 25.4926 151.03 25.4926C146.787 25.5013 142.544 25.4581 138.306 25.4322L138.301 25.4365Z" fill="#F7B50A"/>
<path d="M80.0137 4.86866C80.0137 3.44798 80.0137 2.0273 80.0137 0.610935C84.0482 0.580708 88.0827 0.515934 92.1215 0.537525C93.8068 0.546162 94.6069 1.38821 94.5558 2.83048C94.509 4.1648 93.7557 4.89889 92.13 4.90753C88.0912 4.93775 84.0567 4.88593 80.0179 4.86866H80.0137Z" fill="#F4A51C"/>
<path d="M39.1193 1.77686C39.2725 2.20867 39.5534 2.63617 39.5577 3.06799C39.5875 9.69208 39.5875 16.3162 39.5577 22.9403C39.5577 23.3678 39.2683 23.7996 39.1151 24.2271C39.0044 23.8384 38.8001 23.4498 38.8001 23.0612C38.7789 16.355 38.7789 9.6489 38.8001 2.94708C38.8001 2.55845 39.0087 2.16981 39.1193 1.78117V1.77686Z" fill="#F6A648"/>
<path d="M68.4167 7.36035C68.5911 7.62808 68.9103 7.90012 68.9146 8.17217C68.9529 11.2122 68.9571 14.2522 68.9146 17.2922C68.9103 17.5944 68.5145 17.8924 68.3018 18.1947C68.3401 14.5847 68.3784 10.9747 68.4167 7.36467V7.36035Z" fill="#F5A735"/>
<path d="M105.923 12.0456C106.646 11.9593 107.366 11.8729 108.089 11.7822C107.51 12.784 107.029 12.8402 105.923 12.0456Z" fill="#F6AD14"/>
</svg>
