<svg width="430" height="899" viewBox="0 0 430 899" fill="none" xmlns="http://www.w3.org/2000/svg">
<path d="M-8.95659 44.717L0.969072 -47.6227L440.179 841.716L430.864 928.373L-8.95659 44.717Z" fill="#D9D9D9" stroke="#838383"/>
<path d="M172.928 351.706L171.547 348.918C171.881 348.685 172.148 348.419 172.349 348.12C172.554 347.819 172.695 347.495 172.771 347.148C172.848 346.801 172.859 346.439 172.805 346.063C172.752 345.691 172.634 345.319 172.449 344.945C172.115 344.27 171.657 343.768 171.076 343.437C170.499 343.103 169.826 342.96 169.056 343.006C168.291 343.05 167.459 343.301 166.56 343.759C165.636 344.229 164.928 344.762 164.436 345.358C163.946 345.958 163.664 346.59 163.591 347.254C163.519 347.918 163.645 348.579 163.971 349.236C164.153 349.606 164.371 349.922 164.624 350.187C164.878 350.456 165.159 350.666 165.467 350.818C165.778 350.967 166.109 351.054 166.459 351.078C166.811 351.106 167.176 351.064 167.553 350.951L168.921 353.745C168.29 353.976 167.627 354.088 166.932 354.081C166.242 354.075 165.561 353.942 164.886 353.679C164.219 353.419 163.593 353.02 163.01 352.482C162.433 351.947 161.938 351.262 161.524 350.426C160.949 349.263 160.696 348.09 160.765 346.907C160.837 345.729 161.237 344.622 161.966 343.587C162.697 342.556 163.767 341.682 165.177 340.965C166.59 340.245 167.925 339.9 169.182 339.93C170.438 339.96 171.553 340.301 172.526 340.954C173.503 341.604 174.275 342.502 174.842 343.648C175.216 344.403 175.457 345.157 175.565 345.909C175.676 346.666 175.652 347.397 175.495 348.104C175.342 348.809 175.052 349.467 174.625 350.077C174.201 350.692 173.635 351.235 172.928 351.706ZM177.893 366.65C176.48 367.37 175.144 367.712 173.885 367.678C172.629 367.648 171.51 367.304 170.529 366.645C169.554 365.989 168.782 365.085 168.213 363.935C167.639 362.777 167.386 361.604 167.454 360.417C167.521 359.23 167.918 358.117 168.645 357.077C169.372 356.038 170.44 355.16 171.85 354.442C173.263 353.723 174.598 353.378 175.854 353.408C177.111 353.438 178.226 353.781 179.201 354.438C180.18 355.092 180.957 355.999 181.53 357.157C182.1 358.307 182.351 359.476 182.283 360.663C182.222 361.852 181.828 362.966 181.101 364.006C180.376 365.049 179.307 365.931 177.893 366.65ZM176.51 363.856C177.426 363.39 178.13 362.859 178.622 362.263C179.116 361.672 179.403 361.045 179.482 360.383C179.561 359.721 179.436 359.057 179.106 358.391C178.776 357.725 178.326 357.226 177.755 356.895C177.184 356.564 176.516 356.421 175.751 356.465C174.988 356.513 174.149 356.77 173.233 357.236C172.317 357.703 171.612 358.231 171.118 358.823C170.626 359.419 170.34 360.048 170.261 360.709C170.182 361.371 170.307 362.035 170.637 362.701C170.967 363.368 171.417 363.866 171.988 364.197C172.558 364.528 173.225 364.67 173.989 364.621C174.754 364.577 175.594 364.322 176.51 363.856ZM185.386 365.393L187.068 368.792L180.136 376.814L180.212 376.967L190.699 376.124L192.381 379.523L179.418 386.121L178.095 383.447L186.532 379.153L186.479 379.045L176.434 379.934L175.533 378.113L182.269 370.462L182.215 370.353L173.746 374.664L172.423 371.991L185.386 365.393ZM194.87 384.55L181.907 391.147L180.543 388.391L193.506 381.794L194.87 384.55ZM201.391 397.72L188.428 404.318L187.249 401.938L192.6 392.114L192.553 392.018L184.394 396.171L183.03 393.415L195.993 386.817L197.19 389.236L191.823 399.012L191.88 399.126L200.032 394.977L201.391 397.72ZM202.607 410.774C202.871 410.528 203.081 410.264 203.238 409.983C203.398 409.699 203.503 409.398 203.552 409.081C203.608 408.766 203.606 408.438 203.548 408.096C203.491 407.758 203.375 407.411 203.198 407.054C202.869 406.388 202.414 405.886 201.835 405.549C201.258 405.215 200.586 405.069 199.818 405.109C199.055 405.147 198.222 405.395 197.319 405.855C196.416 406.315 195.716 406.843 195.22 407.441C194.723 408.039 194.434 408.676 194.35 409.35C194.271 410.023 194.402 410.703 194.742 411.39C195.051 412.014 195.424 412.49 195.862 412.82C196.306 413.152 196.789 413.331 197.309 413.358C197.832 413.39 198.37 413.265 198.923 412.984L199.118 413.586L197.454 410.225L199.517 409.175L202.218 414.629L200.585 415.461C199.445 416.04 198.347 416.297 197.289 416.23C196.235 416.161 195.276 415.814 194.413 415.191C193.554 414.566 192.853 413.706 192.311 412.611C191.706 411.389 191.443 410.179 191.521 408.981C191.603 407.781 192.012 406.67 192.747 405.648C193.489 404.628 194.543 403.769 195.91 403.074C196.961 402.539 197.973 402.215 198.948 402.102C199.928 401.99 200.843 402.067 201.692 402.33C202.541 402.594 203.298 403.019 203.963 403.605C204.628 404.191 205.174 404.914 205.601 405.776C205.966 406.514 206.199 407.256 206.299 408.002C206.403 408.746 206.383 409.463 206.238 410.153C206.096 410.847 205.834 411.487 205.454 412.074C205.078 412.659 204.591 413.159 203.994 413.574L202.607 410.774ZM211.095 426.75C211.581 426.439 211.869 426.019 211.961 425.489C212.052 424.959 211.934 424.363 211.606 423.701C211.384 423.251 211.132 422.903 210.852 422.658C210.577 422.411 210.288 422.26 209.987 422.206C209.687 422.157 209.399 422.203 209.12 422.344C208.884 422.454 208.705 422.606 208.585 422.8C208.467 422.998 208.391 423.225 208.359 423.481C208.331 423.734 208.333 424.009 208.364 424.307C208.399 424.602 208.456 424.908 208.533 425.225L208.835 426.538C208.99 427.171 209.079 427.779 209.103 428.361C209.128 428.944 209.072 429.488 208.936 429.992C208.8 430.497 208.571 430.951 208.248 431.355C207.927 431.763 207.497 432.106 206.959 432.385C206.164 432.785 205.375 432.931 204.593 432.824C203.818 432.72 203.082 432.371 202.388 431.779C201.699 431.189 201.093 430.364 200.567 429.303C200.046 428.251 199.753 427.253 199.687 426.309C199.623 425.369 199.798 424.521 200.21 423.763C200.629 423.008 201.299 422.383 202.221 421.887L203.542 424.554C203.122 424.805 202.821 425.115 202.639 425.484C202.463 425.855 202.394 426.264 202.431 426.713C202.475 427.164 202.614 427.627 202.849 428.102C203.08 428.569 203.349 428.94 203.654 429.215C203.961 429.494 204.282 429.668 204.617 429.736C204.952 429.805 205.276 429.759 205.588 429.601C205.879 429.452 206.081 429.241 206.193 428.966C206.308 428.695 206.352 428.359 206.328 427.957C206.305 427.559 206.233 427.094 206.112 426.561L205.764 424.961C205.486 423.727 205.472 422.647 205.722 421.723C205.972 420.799 206.577 420.095 207.537 419.612C208.32 419.208 209.11 419.069 209.906 419.195C210.705 419.325 211.454 419.68 212.153 420.259C212.852 420.838 213.436 421.603 213.907 422.554C214.386 423.521 214.64 424.449 214.668 425.338C214.698 426.231 214.519 427.029 214.132 427.73C213.745 428.432 213.169 428.986 212.403 429.391L211.095 426.75ZM216.586 444.804C215.172 445.523 213.836 445.866 212.578 445.832C211.322 445.802 210.203 445.457 209.222 444.798C208.247 444.142 207.475 443.239 206.905 442.089C206.332 440.93 206.079 439.757 206.146 438.57C206.213 437.383 206.611 436.27 207.338 435.231C208.065 434.191 209.133 433.313 210.542 432.596C211.956 431.876 213.291 431.531 214.547 431.561C215.803 431.591 216.919 431.935 217.894 432.591C218.873 433.246 219.649 434.152 220.223 435.311C220.792 436.46 221.043 437.629 220.976 438.816C220.915 440.005 220.521 441.12 219.794 442.159C219.069 443.203 218 444.084 216.586 444.804ZM215.203 442.009C216.118 441.543 216.822 441.012 217.314 440.417C217.809 439.825 218.095 439.198 218.175 438.536C218.254 437.875 218.128 437.211 217.799 436.544C217.469 435.878 217.018 435.38 216.448 435.048C215.877 434.717 215.209 434.574 214.444 434.618C213.681 434.667 212.841 434.924 211.925 435.39C211.01 435.856 210.305 436.385 209.81 436.976C209.318 437.572 209.033 438.201 208.954 438.863C208.874 439.525 209 440.189 209.33 440.855C209.659 441.521 210.11 442.02 210.68 442.351C211.251 442.682 211.918 442.823 212.681 442.775C213.447 442.731 214.287 442.475 215.203 442.009ZM223.527 458.824C222.114 459.543 220.778 459.886 219.519 459.852C218.263 459.822 217.144 459.478 216.163 458.819C215.188 458.162 214.416 457.259 213.847 456.109C213.273 454.951 213.02 453.778 213.087 452.591C213.155 451.404 213.552 450.29 214.279 449.251C215.006 448.212 216.074 447.333 217.483 446.616C218.897 445.897 220.232 445.552 221.488 445.582C222.745 445.612 223.86 445.955 224.835 446.612C225.814 447.266 226.591 448.172 227.164 449.331C227.733 450.481 227.984 451.649 227.917 452.836C227.856 454.026 227.462 455.14 226.735 456.179C226.01 457.223 224.941 458.104 223.527 458.824ZM222.144 456.03C223.06 455.564 223.764 455.033 224.256 454.437C224.75 453.845 225.037 453.219 225.116 452.557C225.195 451.895 225.07 451.231 224.74 450.565C224.41 449.899 223.96 449.4 223.389 449.069C222.818 448.738 222.15 448.594 221.385 448.638C220.622 448.687 219.782 448.944 218.867 449.41C217.951 449.876 217.246 450.405 216.752 450.997C216.26 451.592 215.974 452.221 215.895 452.883C215.816 453.545 215.941 454.209 216.271 454.875C216.601 455.541 217.051 456.04 217.622 456.371C218.192 456.702 218.859 456.844 219.622 456.795C220.388 456.751 221.228 456.496 222.144 456.03ZM236.418 468.47L223.455 475.067L222.276 472.687L227.627 462.863L227.58 462.768L219.421 466.92L218.057 464.164L231.02 457.567L232.217 459.985L226.85 469.761L226.907 469.876L235.059 465.726L236.418 468.47Z" fill="#F28B30"/>
</svg>
