<svg width="275" height="291" viewBox="0 0 275 291" fill="none" xmlns="http://www.w3.org/2000/svg">
<path d="M86.7849 -41.096C99.7151 -24.7376 101.719 -2.1118 94.3035 21.3701C86.8904 44.8457 70.0867 69.0649 45.6102 88.4118C21.1338 107.759 -6.31128 118.515 -30.8643 120.307C-55.4238 122.098 -76.9754 114.924 -89.9056 98.5656C-102.836 82.2072 -104.839 59.5815 -97.4241 36.0995C-90.011 12.6239 -73.2073 -11.5952 -48.7308 -30.9422C-24.2544 -50.2891 3.19066 -61.0455 27.7436 -62.8369C52.3032 -64.6287 73.8548 -57.4544 86.7849 -41.096Z" stroke="white" stroke-opacity="0.18" stroke-width="2"/>
<path d="M47.9797 -10.4225C54.9847 -1.56028 56.1029 10.7386 52.0466 23.5839C47.9923 36.423 38.7913 49.696 25.3654 60.3082C11.9394 70.9205 -3.09959 76.8076 -16.5279 77.7873C-29.9628 78.7675 -41.6709 74.8393 -48.6759 65.977C-55.6809 57.1148 -56.7992 44.8159 -52.7429 31.9705C-48.6886 19.1315 -39.4876 5.85852 -26.0616 -4.75376C-12.6357 -15.366 2.40332 -21.2531 15.8316 -22.2328C29.2665 -23.213 40.9747 -19.2848 47.9797 -10.4225Z" stroke="white" stroke-opacity="0.08" stroke-width="2"/>
<path d="M15.2389 15.4562C17.3961 18.1852 17.7901 22.0348 16.4819 26.1775C15.1757 30.314 12.195 34.631 7.81044 38.0967C3.42582 41.5624 -1.46282 43.4655 -5.78909 43.7812C-10.122 44.0973 -13.7765 42.8249 -15.9336 40.0959C-18.0907 37.3669 -18.4847 33.5173 -17.1765 29.3746C-15.8703 25.2381 -12.8897 20.9211 -8.50509 17.4554C-4.12048 13.9897 0.768163 12.0866 5.09443 11.7709C9.42731 11.4548 13.0818 12.7271 15.2389 15.4562Z" stroke="white" stroke-opacity="0.06" stroke-width="2"/>
<path d="M119.931 -67.2963C137.768 -44.729 140.505 -13.5496 130.308 18.7424C120.113 51.0281 97.0119 84.3137 63.3825 110.895C29.7531 137.477 -7.96766 152.267 -41.735 154.73C-75.509 157.194 -105.214 147.332 -123.052 124.764C-140.889 102.197 -143.626 71.0174 -133.429 38.7255C-123.234 6.43978 -100.133 -26.8459 -66.5035 -53.4276C-32.8741 -80.0093 4.84663 -94.799 38.614 -97.2626C72.388 -99.7266 102.093 -89.8637 119.931 -67.2963Z" stroke="white" stroke-opacity="0.2" stroke-width="2"/>
<path d="M148.672 -90.0062C170.571 -62.3017 173.914 -24.0452 161.415 15.536C148.918 55.111 120.607 95.8981 79.4046 128.466C38.2022 161.033 -8.02046 179.16 -49.4116 182.18C-90.8094 185.2 -127.26 173.113 -149.158 145.408C-171.057 117.704 -174.4 79.4471 -161.901 39.8659C-149.404 0.290905 -121.093 -40.4962 -79.8906 -73.0639C-38.6883 -105.631 7.5344 -123.758 48.9256 -126.778C90.3234 -129.798 126.774 -117.711 148.672 -90.0062Z" stroke="white" stroke-opacity="0.33" stroke-width="2"/>
<path d="M177.829 -113.052C204.045 -79.8859 208.033 -34.1053 193.087 13.2258C178.143 60.5505 144.292 109.313 95.0387 148.245C45.7849 187.176 -9.47672 208.851 -58.9733 212.462C-108.477 216.074 -152.099 201.621 -178.314 168.455C-204.53 135.289 -208.518 89.508 -193.572 42.1769C-178.628 -5.14778 -144.777 -53.9103 -95.5236 -92.8419C-46.2698 -131.774 8.99181 -153.448 58.4884 -157.059C107.992 -160.671 151.614 -146.218 177.829 -113.052Z" stroke="white" stroke-opacity="0.44" stroke-width="2"/>
</svg>
