<svg width="388" height="369" viewBox="0 0 388 369" fill="none" xmlns="http://www.w3.org/2000/svg">
<path d="M-6.21625 68.7828L-7.41056 5.09477L391.403 311.31L392.524 371.081L-6.21625 68.7828Z" fill="#D9D9D9" stroke="#838383"/>
<path d="M154.307 160.271L151.856 158.355C152.056 158.001 152.182 157.645 152.233 157.289C152.288 156.929 152.274 156.576 152.193 156.23C152.112 155.884 151.965 155.553 151.754 155.238C151.546 154.925 151.278 154.64 150.949 154.384C150.356 153.92 149.726 153.665 149.059 153.618C148.394 153.567 147.725 153.73 147.052 154.104C146.381 154.476 145.739 155.062 145.127 155.863C144.498 156.687 144.09 157.474 143.904 158.225C143.722 158.978 143.742 159.669 143.964 160.299C144.186 160.929 144.586 161.47 145.164 161.922C145.489 162.176 145.822 162.367 146.164 162.497C146.51 162.629 146.854 162.696 147.197 162.7C147.543 162.7 147.879 162.635 148.204 162.505C148.534 162.378 148.844 162.182 149.136 161.917L151.578 163.844C151.11 164.325 150.56 164.713 149.93 165.007C149.307 165.301 148.634 165.475 147.913 165.531C147.198 165.585 146.462 165.496 145.703 165.264C144.952 165.031 144.209 164.628 143.474 164.053C142.452 163.254 141.716 162.307 141.266 161.21C140.821 160.117 140.702 158.946 140.911 157.697C141.124 156.451 141.711 155.2 142.671 153.943C143.634 152.683 144.688 151.794 145.833 151.277C146.979 150.76 148.131 150.585 149.29 150.752C150.453 150.916 151.537 151.391 152.545 152.178C153.209 152.697 153.752 153.272 154.176 153.904C154.603 154.538 154.898 155.208 155.063 155.913C155.23 156.614 155.253 157.333 155.133 158.068C155.016 158.806 154.741 159.54 154.307 160.271ZM165.253 171.593C164.29 172.853 163.234 173.741 162.085 174.255C160.939 174.771 159.782 174.945 158.612 174.776C157.449 174.606 156.362 174.126 155.351 173.336C154.333 172.54 153.597 171.593 153.144 170.493C152.69 169.394 152.567 168.218 152.772 166.967C152.977 165.715 153.56 164.461 154.52 163.204C155.483 161.944 156.537 161.055 157.683 160.538C158.828 160.021 159.982 159.848 161.145 160.018C162.311 160.184 163.403 160.665 164.422 161.461C165.433 162.251 166.165 163.196 166.618 164.295C167.078 165.394 167.205 166.569 167 167.82C166.798 169.075 166.216 170.332 165.253 171.593ZM162.796 169.673C163.42 168.856 163.825 168.073 164.011 167.323C164.2 166.576 164.187 165.887 163.972 165.256C163.757 164.625 163.356 164.081 162.771 163.623C162.185 163.165 161.563 162.91 160.905 162.859C160.248 162.808 159.583 162.967 158.913 163.339C158.246 163.713 157.6 164.308 156.977 165.124C156.353 165.941 155.946 166.723 155.757 167.47C155.571 168.22 155.586 168.911 155.801 169.542C156.016 170.172 156.417 170.717 157.002 171.174C157.588 171.632 158.21 171.887 158.867 171.938C159.525 171.99 160.188 171.828 160.855 171.454C161.525 171.083 162.173 170.489 162.796 169.673ZM171.463 167.216L174.451 169.552L171.675 179.785L171.809 179.89L180.897 174.59L183.885 176.926L175.056 188.485L172.706 186.648L178.453 179.124L178.357 179.05L169.688 184.199L168.087 182.948L170.847 173.135L170.752 173.06L164.983 180.612L162.633 178.775L171.463 167.216ZM188.305 180.38L179.475 191.939L177.052 190.045L185.882 178.486L188.305 180.38ZM199.884 189.43L191.055 200.989L188.962 199.353L189.533 188.181L189.449 188.115L183.892 195.39L181.469 193.497L190.298 181.938L192.425 183.6L191.819 194.735L191.919 194.814L197.472 187.545L199.884 189.43ZM206.631 200.67C206.763 200.334 206.838 200.005 206.857 199.684C206.879 199.359 206.844 199.042 206.751 198.735C206.664 198.427 206.521 198.132 206.32 197.849C206.123 197.568 205.868 197.306 205.554 197.061C204.968 196.603 204.342 196.348 203.673 196.294C203.009 196.244 202.34 196.402 201.665 196.771C200.993 197.135 200.35 197.72 199.735 198.525C199.12 199.33 198.718 200.11 198.529 200.864C198.341 201.618 198.355 202.317 198.572 202.961C198.792 203.601 199.204 204.158 199.808 204.63C200.356 205.059 200.899 205.327 201.437 205.434C201.981 205.541 202.493 205.494 202.975 205.293C203.459 205.095 203.89 204.75 204.267 204.257L204.703 204.715L201.748 202.406L203.154 200.566L207.949 204.314L206.837 205.77C206.061 206.786 205.182 207.493 204.199 207.891C203.219 208.284 202.205 208.387 201.157 208.199C200.112 208.007 199.108 207.535 198.146 206.783C197.071 205.943 196.31 204.967 195.862 203.853C195.416 202.736 195.304 201.557 195.524 200.317C195.751 199.077 196.33 197.847 197.261 196.628C197.977 195.691 198.749 194.96 199.578 194.437C200.414 193.912 201.272 193.585 202.151 193.455C203.031 193.325 203.897 193.38 204.75 193.621C205.604 193.861 206.409 194.277 207.166 194.869C207.815 195.376 208.346 195.944 208.759 196.574C209.175 197.199 209.467 197.854 209.636 198.538C209.808 199.226 209.849 199.916 209.76 200.61C209.674 201.3 209.452 201.961 209.093 202.594L206.631 200.67ZM221.199 211.397C221.502 210.907 221.58 210.403 221.433 209.886C221.286 209.368 220.921 208.882 220.34 208.427C219.944 208.118 219.567 207.914 219.208 207.814C218.853 207.71 218.527 207.699 218.233 207.781C217.941 207.866 217.701 208.033 217.511 208.281C217.346 208.482 217.251 208.696 217.226 208.923C217.205 209.154 217.236 209.391 217.317 209.635C217.402 209.875 217.522 210.123 217.679 210.377C217.839 210.628 218.022 210.88 218.229 211.132L219.069 212.185C219.483 212.688 219.827 213.197 220.101 213.712C220.375 214.227 220.56 214.741 220.656 215.255C220.752 215.769 220.742 216.277 220.625 216.781C220.512 217.288 220.274 217.783 219.91 218.268C219.366 218.972 218.718 219.446 217.967 219.688C217.222 219.929 216.409 219.934 215.527 219.701C214.651 219.467 213.746 218.985 212.814 218.256C211.889 217.533 211.192 216.76 210.724 215.938C210.26 215.118 210.05 214.278 210.094 213.417C210.144 212.555 210.478 211.701 211.094 210.855L213.439 212.688C213.169 213.096 213.032 213.505 213.028 213.917C213.03 214.327 213.145 214.726 213.373 215.115C213.607 215.502 213.933 215.859 214.351 216.186C214.761 216.506 215.163 216.725 215.558 216.84C215.955 216.959 216.32 216.977 216.652 216.894C216.984 216.81 217.256 216.629 217.469 216.351C217.667 216.091 217.757 215.813 217.739 215.517C217.725 215.223 217.62 214.901 217.424 214.549C217.231 214.201 216.965 213.812 216.625 213.384L215.618 212.093C214.833 211.1 214.353 210.134 214.179 209.192C214.005 208.25 214.245 207.354 214.902 206.503C215.432 205.8 216.084 205.333 216.857 205.102C217.633 204.873 218.462 204.869 219.342 205.088C220.223 205.308 221.081 205.744 221.917 206.397C222.768 207.062 223.398 207.789 223.808 208.578C224.222 209.37 224.406 210.167 224.361 210.967C224.316 211.767 224.036 212.515 223.521 213.213L221.199 211.397ZM233.964 225.295C233.001 226.556 231.945 227.443 230.795 227.957C229.65 228.474 228.492 228.647 227.323 228.478C226.16 228.308 225.073 227.828 224.062 227.038C223.043 226.242 222.307 225.295 221.854 224.195C221.401 223.096 221.277 221.921 221.483 220.669C221.688 219.417 222.271 218.163 223.231 216.906C224.193 215.646 225.248 214.757 226.393 214.24C227.539 213.724 228.693 213.55 229.856 213.72C231.022 213.886 232.114 214.367 233.133 215.163C234.144 215.953 234.876 216.898 235.329 217.997C235.788 219.096 235.916 220.271 235.71 221.522C235.509 222.777 234.926 224.035 233.964 225.295ZM231.507 223.375C232.131 222.559 232.535 221.775 232.721 221.025C232.911 220.278 232.898 219.589 232.683 218.958C232.467 218.327 232.067 217.783 231.481 217.325C230.896 216.867 230.274 216.613 229.616 216.561C228.958 216.51 228.294 216.67 227.623 217.041C226.956 217.415 226.311 218.01 225.687 218.826C225.064 219.643 224.657 220.425 224.467 221.172C224.282 221.922 224.296 222.613 224.512 223.244C224.727 223.875 225.127 224.419 225.713 224.877C226.299 225.334 226.92 225.589 227.578 225.64C228.236 225.692 228.898 225.53 229.565 225.156C230.236 224.785 230.883 224.192 231.507 223.375ZM246.29 234.929C245.327 236.189 244.271 237.077 243.122 237.591C241.976 238.107 240.819 238.281 239.649 238.112C238.486 237.942 237.399 237.462 236.388 236.672C235.37 235.876 234.634 234.929 234.181 233.829C233.727 232.73 233.604 231.555 233.809 230.303C234.014 229.051 234.597 227.797 235.557 226.54C236.52 225.28 237.574 224.391 238.719 223.874C239.865 223.358 241.019 223.184 242.182 223.354C243.348 223.52 244.44 224.001 245.459 224.797C246.47 225.587 247.202 226.532 247.655 227.631C248.115 228.73 248.242 229.905 248.037 231.156C247.835 232.411 247.253 233.668 246.29 234.929ZM243.833 233.009C244.457 232.192 244.862 231.409 245.048 230.659C245.237 229.912 245.224 229.223 245.009 228.592C244.794 227.961 244.393 227.417 243.808 226.959C243.222 226.501 242.6 226.246 241.942 226.195C241.285 226.144 240.62 226.303 239.95 226.675C239.283 227.049 238.637 227.644 238.014 228.46C237.39 229.277 236.983 230.059 236.794 230.806C236.608 231.556 236.623 232.247 236.838 232.878C237.053 233.508 237.453 234.053 238.039 234.511C238.625 234.968 239.247 235.223 239.904 235.274C240.562 235.326 241.225 235.164 241.892 234.79C242.562 234.419 243.21 233.825 243.833 233.009ZM262.085 238.044L253.256 249.603L251.163 247.967L251.734 236.795L251.65 236.73L246.093 244.005L243.67 242.111L252.5 230.552L254.626 232.214L254.02 243.35L254.121 243.429L259.673 236.159L262.085 238.044Z" fill="#F28B30"/>
</svg>
