<svg width="430" height="899" viewBox="0 0 430 899" fill="none" xmlns="http://www.w3.org/2000/svg">
<g clip-path="url(#clip0_1_8785)">
<rect width="430" height="899" fill="url(#paint0_linear_1_8785)"/>
<path d="M460.579 40.9644L821.599 117.558C1004.62 156.388 1121.51 336.234 1082.68 519.255C1043.85 702.277 864.006 819.167 680.984 780.337L666.169 777.194C474.966 736.628 352.849 548.742 393.415 357.539L460.579 40.9644Z" stroke="#014051" stroke-width="5"/>
<path d="M-159.739 512.035L8.11961 820.393C93.2355 976.752 35.4813 1172.51 -120.878 1257.62C-277.237 1342.74 -472.991 1284.98 -558.107 1128.62L-564.978 1116C-653.889 952.672 -593.56 748.19 -430.229 659.279L-159.739 512.035Z" stroke="#027999" stroke-width="3"/>
</g>
<defs>
<linearGradient id="paint0_linear_1_8785" x1="215" y1="0" x2="215" y2="899" gradientUnits="userSpaceOnUse">
<stop stop-color="#F3AE12"/>
<stop offset="1" stop-color="#F28B30"/>
</linearGradient>
<clipPath id="clip0_1_8785">
<rect width="430" height="899" fill="white"/>
</clipPath>
</defs>
</svg>
