<svg width="21" height="21" viewBox="0 0 21 21" fill="none" xmlns="http://www.w3.org/2000/svg">
<g clip-path="url(#clip0_1_8740)">
<path d="M7.16895 19.3851C7.8593 19.3851 8.41895 18.8255 8.41895 18.1351C8.41895 17.4448 7.8593 16.8851 7.16895 16.8851C6.47859 16.8851 5.91895 17.4448 5.91895 18.1351C5.91895 18.8255 6.47859 19.3851 7.16895 19.3851Z" fill="white"/>
<path d="M15.9189 19.3851C16.6093 19.3851 17.1689 18.8255 17.1689 18.1351C17.1689 17.4448 16.6093 16.8851 15.9189 16.8851C15.2286 16.8851 14.6689 17.4448 14.6689 18.1351C14.6689 18.8255 15.2286 19.3851 15.9189 19.3851Z" fill="white"/>
<path d="M18.4189 5.01014H4.55645L4.04395 2.38514C4.01473 2.24184 3.93618 2.11333 3.82198 2.02197C3.70778 1.93061 3.56516 1.88219 3.41895 1.88514H0.918945V3.13514H2.90645L5.29394 15.1351C5.32316 15.2784 5.40171 15.4069 5.51591 15.4983C5.63011 15.5897 5.77273 15.6381 5.91894 15.6351H17.1689V14.3851H6.43144L5.91894 11.8851H17.1689C17.3134 11.8887 17.4547 11.842 17.5686 11.7531C17.6826 11.6643 17.7622 11.5386 17.7939 11.3976L19.0439 5.77264C19.0649 5.6799 19.0644 5.58361 19.0425 5.49109C19.0206 5.39858 18.9779 5.31227 18.9177 5.23874C18.8574 5.16522 18.7812 5.10641 18.6947 5.06679C18.6083 5.02718 18.514 5.0078 18.4189 5.01014ZM16.6689 10.6351H5.68144L4.80644 6.26014H17.6377L16.6689 10.6351Z" fill="white"/>
</g>
<defs>
<clipPath id="clip0_1_8740">
<rect width="20" height="20" fill="white" transform="translate(0.918945 0.635132)"/>
</clipPath>
</defs>
</svg>
