<svg width="21" height="20" viewBox="0 0 21 20" fill="none" xmlns="http://www.w3.org/2000/svg">
<g clip-path="url(#clip0_1_7838)">
<path d="M6.75 18.75C7.44036 18.75 8 18.1904 8 17.5C8 16.8096 7.44036 16.25 6.75 16.25C6.05964 16.25 5.5 16.8096 5.5 17.5C5.5 18.1904 6.05964 18.75 6.75 18.75Z" fill="white"/>
<path d="M15.5 18.75C16.1904 18.75 16.75 18.1904 16.75 17.5C16.75 16.8096 16.1904 16.25 15.5 16.25C14.8096 16.25 14.25 16.8096 14.25 17.5C14.25 18.1904 14.8096 18.75 15.5 18.75Z" fill="white"/>
<path d="M18 4.37513H4.1375L3.625 1.75013C3.59578 1.60683 3.51723 1.47832 3.40304 1.38696C3.28884 1.2956 3.14622 1.24718 3 1.25013H0.5V2.50013H2.4875L4.875 14.5001C4.90422 14.6434 4.98276 14.7719 5.09696 14.8633C5.21116 14.9547 5.35378 15.0031 5.5 15.0001H16.75V13.7501H6.0125L5.5 11.2501H16.75C16.8945 11.2537 17.0357 11.207 17.1497 11.1181C17.2636 11.0292 17.3432 10.9036 17.375 10.7626L18.625 5.13763C18.6459 5.04489 18.6455 4.9486 18.6236 4.85608C18.6017 4.76357 18.559 4.67726 18.4987 4.60373C18.4385 4.53021 18.3622 4.4714 18.2758 4.43178C18.1894 4.39217 18.095 4.37279 18 4.37513ZM16.25 10.0001H5.2625L4.3875 5.62513H17.2187L16.25 10.0001Z" fill="white"/>
</g>
<defs>
<clipPath id="clip0_1_7838">
<rect width="20" height="20" fill="white" transform="translate(0.5)"/>
</clipPath>
</defs>
</svg>
