<svg width="26" height="25" viewBox="0 0 26 25" fill="none" xmlns="http://www.w3.org/2000/svg">
<g clip-path="url(#clip0_97_2524)">
<path d="M12.8472 0C9.44106 0.00358446 6.17546 1.3217 3.76693 3.66512C1.35841 6.00855 0.00368403 9.18589 0 12.5C0.642361 29.0625 25.0521 29.0552 25.6944 12.5C25.6908 9.18589 24.336 6.00855 21.9275 3.66512C19.519 1.3217 16.2534 0.00358446 12.8472 0ZM12.8472 13.5417C12.5428 13.5456 12.2396 13.5806 11.9426 13.6458C11.915 13.0649 11.7517 12.4978 11.4651 11.9875C11.732 11.8896 11.987 11.7631 12.2252 11.6104C12.4514 11.4555 12.66 11.2774 12.8472 11.0792C13.2244 11.487 13.6991 11.7979 14.2294 11.9844C13.9428 12.4947 13.7795 13.0618 13.7519 13.6427C13.4548 13.5785 13.1516 13.5446 12.8472 13.5417ZM19.3019 8.81354L16.2624 10.0479C16.003 10.1481 15.7223 10.185 15.4448 10.1555C15.1673 10.126 14.9014 10.031 14.6703 9.87873C14.4392 9.72645 14.2498 9.52151 14.1187 9.28176C13.9875 9.04202 13.9186 8.77472 13.9178 8.50313V5.29167C15.029 5.44915 16.0896 5.84737 17.0215 6.45692C17.9533 7.06648 18.7326 7.87182 19.3019 8.81354ZM11.7766 5.29167V8.50313C11.7761 8.77433 11.7075 9.04131 11.5768 9.28089C11.4462 9.52047 11.2575 9.72541 11.027 9.87792C10.7965 10.0304 10.5312 10.1259 10.2542 10.1561C9.97719 10.1863 9.6968 10.1502 9.43736 10.051L6.3765 8.83854C6.94419 7.88999 7.72465 7.07839 8.65968 6.46425C9.59471 5.85011 10.6602 5.44928 11.7766 5.29167ZM5.57462 10.7698L8.39031 11.8875C8.71372 12.0131 9.00323 12.2092 9.2366 12.4607C9.46997 12.7121 9.64099 13.0123 9.73652 13.3381C9.83205 13.6639 9.84954 14.0067 9.78766 14.3401C9.72577 14.6735 9.58616 14.9887 9.37954 15.2615L7.5092 17.6042C6.61589 16.7192 5.96939 15.627 5.63087 14.4311C5.29235 13.2352 5.27299 11.975 5.57462 10.7698ZM9.21467 18.8719L11.1343 16.4583C11.341 16.2083 11.603 16.0067 11.9008 15.8685C12.1986 15.7304 12.5245 15.6592 12.8543 15.6603C13.1842 15.6614 13.5096 15.7347 13.8064 15.8749C14.1032 16.015 14.3637 16.2183 14.5687 16.4698L16.4744 18.876C15.3619 19.4714 14.1126 19.7832 12.8429 19.7825C11.5732 19.7818 10.3243 19.4685 9.21253 18.8719H9.21467ZM18.182 17.6156L16.3267 15.2729C16.1164 14.9995 15.9739 14.6825 15.9103 14.3467C15.8468 14.0108 15.8639 13.6653 15.9602 13.3369C16.0566 13.0085 16.2297 12.7063 16.466 12.4538C16.7023 12.2013 16.9954 12.0053 17.3223 11.8812L20.1145 10.7448C20.4229 11.9554 20.407 13.2228 20.0683 14.4257C19.7296 15.6287 19.0794 16.727 18.1799 17.6156H18.182Z" fill="#F28B30"/>
</g>
<defs>
<clipPath id="clip0_97_2524">
<rect width="25.6944" height="25" fill="white"/>
</clipPath>
</defs>
</svg>
