<svg width="30" height="30" viewBox="0 0 30 30" fill="none" xmlns="http://www.w3.org/2000/svg">
<g clip-path="url(#clip0_97_2506)">
<path d="M29.8934 24.9036L26.2877 10.4202C25.8945 8.84172 24.4848 7.73957 22.8583 7.73957H18.5131C20.6832 4.85676 18.6156 0.708496 14.9999 0.708496C11.3784 0.708496 9.32115 4.86273 11.4868 7.73957H7.18201C5.55961 7.73957 4.15043 8.8382 3.75434 10.4108L0.108692 24.8942C-0.45293 27.126 1.23258 29.2915 3.53578 29.2915H26.464C28.7616 29.2915 30.4492 27.1339 29.8934 24.9036ZM14.9999 2.46631C16.4535 2.46631 17.6365 3.64926 17.6365 5.10297C17.6365 6.55668 16.4536 7.73963 14.9999 7.73963C13.5462 7.73963 12.3632 6.55668 12.3632 5.10297C12.3632 3.64926 13.5462 2.46631 14.9999 2.46631ZM13.1976 22.4655C12.8634 22.8122 12.3069 22.8265 11.9549 22.4878L9.61412 20.2291V21.855C9.61412 22.3401 9.22037 22.7339 8.73522 22.7339C8.24947 22.7339 7.85631 22.3401 7.85631 21.855V15.1761C7.85631 14.6904 8.24947 14.2972 8.73522 14.2972C9.22037 14.2972 9.61412 14.6904 9.61412 15.1761V16.5612L11.7334 14.613C12.0908 14.2849 12.6469 14.3083 12.9749 14.6652C13.3037 15.0226 13.2802 15.5787 12.9228 15.9073L10.2305 18.3817L13.1753 21.2228C13.5246 21.5597 13.5345 22.1158 13.1976 22.4655ZM18.3818 22.7339C16.0557 22.7339 14.1632 20.8414 14.1632 18.5153C14.1632 15.1347 17.9587 13.1375 20.7407 15.0179C21.1433 15.2898 21.2487 15.8359 20.9774 16.2384C20.7056 16.6403 20.1589 16.7464 19.7569 16.4745C18.138 15.3805 15.9209 16.541 15.9209 18.5153C15.9209 21.0488 19.5732 22.101 20.2767 19.3942H19.2665C18.7813 19.3942 18.3876 19.001 18.3876 18.5153C18.3876 18.0301 18.7813 17.6363 19.2665 17.6363H21.2645C21.7502 17.6363 22.1434 18.0301 22.1434 18.5153C22.1434 20.999 20.5966 22.7339 18.3818 22.7339Z" fill="#F28B30"/>
</g>
<defs>
<clipPath id="clip0_97_2506">
<rect width="30" height="30" fill="white"/>
</clipPath>
</defs>
</svg>
