<svg width="25" height="25" viewBox="0 0 25 25" fill="none" xmlns="http://www.w3.org/2000/svg">
<g clip-path="url(#clip0_97_2509)">
<path d="M15.3297 25.0001C14.9359 25.0001 14.6167 24.6709 14.6167 24.2648C14.6167 19.4146 13.7572 15.2506 12.0449 11.765C8.0937 11.7712 4.37812 12.2533 0.896874 13.2107C0.516387 13.3153 0.125672 13.0821 0.0242534 12.6897C-0.077213 12.2973 0.148967 11.8945 0.529455 11.7898C2.54027 11.2369 4.62424 10.8374 6.78117 10.5911C6.89267 7.3332 8.24971 4.29359 10.8244 1.48831C7.32633 1.58221 4.01747 2.05861 0.896874 2.91676C0.516387 3.02139 0.125672 2.78815 0.0242534 2.39577C-0.077213 2.00339 0.148967 1.60052 0.529455 1.49588C4.15583 0.498626 8.02021 0.000488281 12.1212 0.000488281C16.2222 0.000488281 20.0866 0.498626 23.7129 1.49588C24.0934 1.60052 24.3196 2.00344 24.2181 2.39577C24.1167 2.78815 23.726 3.02139 23.3455 2.91676C21.7247 2.47106 20.0531 2.12834 18.3307 1.88869C15.9488 4.43124 14.6151 7.24263 14.3113 10.3428C17.6047 10.4898 20.7389 10.972 23.7129 11.7898C24.0934 11.8945 24.3196 12.2974 24.2181 12.6897C24.1167 13.0821 23.726 13.3153 23.3455 13.2107C21.9965 12.8398 20.6125 12.5402 19.1931 12.3119C21.3339 15.8637 22.4597 19.9316 22.4597 24.2648C22.4597 24.6709 22.1405 25.0001 21.7467 25.0001H15.3297ZM15.3899 13.1889C15.537 13.5082 15.6763 13.8325 15.8077 14.1616C15.9577 14.5371 16.3744 14.7161 16.7385 14.5615C17.1026 14.4068 17.2762 13.9771 17.1262 13.6016C16.9852 13.2486 16.8359 12.9007 16.678 12.558C16.5091 12.1911 16.0837 12.035 15.7281 12.2093C15.3724 12.3835 15.221 12.822 15.3899 13.1889ZM16.8488 17.5565C16.9254 17.9012 16.9949 18.2504 17.0573 18.6042C17.1278 19.0037 17.499 19.2687 17.8864 19.196C18.2738 19.1233 18.5308 18.7405 18.4603 18.341C18.394 17.9655 18.3202 17.5945 18.2388 17.228C18.1508 16.8322 17.7684 16.5848 17.3845 16.6756C17.0007 16.7662 16.7608 17.1607 16.8488 17.5565ZM13.1284 2.43844C12.8972 2.74542 12.6785 3.05626 12.4725 3.3709C12.2522 3.70742 12.3381 4.16449 12.6644 4.39174C12.9908 4.61898 13.434 4.53041 13.6543 4.19384C13.8426 3.90634 14.0426 3.62192 14.2546 3.34053C14.4962 3.01983 14.4399 2.55792 14.1289 2.30881C13.8179 2.05969 13.37 2.11774 13.1284 2.43844ZM10.7763 6.80816C10.6502 7.17407 10.5389 7.54414 10.4422 7.9184C10.3409 8.31078 10.5672 8.71365 10.9477 8.81814C11.3283 8.92268 11.7189 8.68929 11.8202 8.29686C11.9069 7.96102 12.0069 7.62885 12.1201 7.30039C12.2519 6.91773 12.0579 6.49732 11.6869 6.36139C11.3157 6.2255 10.9081 6.4255 10.7763 6.80816ZM17.4394 22.1631C17.4548 22.518 17.4642 22.8767 17.4674 23.2394C17.4711 23.6455 17.7932 23.9716 18.187 23.9679C18.5807 23.9641 18.897 23.6319 18.8934 23.2259C18.8899 22.8458 18.8801 22.4695 18.8639 22.0971C18.8462 21.6915 18.513 21.3773 18.1196 21.3956C17.7263 21.4138 17.4217 21.7574 17.4394 22.1631ZM3.20868 19.2889C2.54231 18.8933 2.13919 17.9497 2.13919 16.912C2.13919 15.5435 2.84031 14.3385 3.92169 14.3385C5.00307 14.3385 5.70419 15.5435 5.70419 16.912C5.70419 17.9497 5.30107 18.8933 4.6347 19.2889V20.2208C4.6347 20.6269 4.31548 20.9561 3.92169 20.9561C3.5279 20.9561 3.20868 20.6269 3.20868 20.2208V19.2889ZM8.55624 23.333C7.88987 22.9374 7.48675 21.9937 7.48675 20.956C7.48675 19.5876 8.18787 18.3825 9.26925 18.3825C10.3506 18.3825 11.0518 19.5875 11.0518 20.956C11.0518 21.9937 10.6486 22.9374 9.98226 23.333V24.2648C9.98226 24.6709 9.66304 25.0001 9.26925 25.0001C8.87546 25.0001 8.55624 24.6709 8.55624 24.2648V23.333ZM19.9643 8.62732C19.2979 8.23172 18.8948 7.28804 18.8948 6.25036C18.8948 4.88192 19.5959 3.67685 20.6773 3.67685C21.7587 3.67685 22.4598 4.88187 22.4598 6.25036C22.4598 7.28804 22.0567 8.23172 21.3903 8.62732V9.55915C21.3903 9.96524 21.0711 10.2944 20.6773 10.2944C20.2835 10.2944 19.9643 9.96524 19.9643 9.55915V8.62732ZM2.8522 8.62732C2.18582 8.23172 1.7827 7.28804 1.7827 6.25036C1.7827 4.88192 2.48383 3.67685 3.56521 3.67685C4.64659 3.67685 5.34771 4.88187 5.34771 6.25036C5.34771 7.28804 4.94459 8.23172 4.27822 8.62732V9.55915C4.27822 9.96524 3.959 10.2944 3.56521 10.2944C3.17142 10.2944 2.8522 9.96524 2.8522 9.55915V8.62732Z" fill="#F28B30"/>
</g>
<defs>
<clipPath id="clip0_97_2509">
<rect width="24.2424" height="25" fill="white"/>
</clipPath>
</defs>
</svg>
