<svg width="26" height="26" viewBox="0 0 26 26" fill="none" xmlns="http://www.w3.org/2000/svg">
<g clip-path="url(#clip0_97_2514)">
<path d="M12.9998 23.6786C12.9082 23.6786 12.8185 23.6514 12.7423 23.6006L11.3494 22.672L11.8645 21.8994L13.1404 22.75H15.1982C14.9745 22.0358 14.779 21.2566 14.6136 20.4286H12.0713C11.9797 20.4286 11.8899 20.4014 11.8137 20.3506L10.4208 19.422L10.9359 18.6494L12.2118 19.5H14.4444C14.3191 18.7515 14.2163 17.9737 14.1365 17.1786H11.607C11.5154 17.1786 11.4256 17.1514 11.3494 17.1006L9.95655 16.172L10.4716 15.3994L11.7475 16.25H14.0535C13.9944 15.4827 13.9568 14.7053 13.9398 13.9286H11.607C11.5154 13.9286 11.4256 13.9014 11.3494 13.8506L9.95655 12.922L10.4716 12.1494L11.7475 13H13.9284C13.9284 12.2278 13.9507 11.4504 13.9929 10.6786H11.607C11.5154 10.6786 11.4256 10.6514 11.3494 10.6006L9.95655 9.672L10.4716 8.89937L11.7475 9.75H14.0535C14.1143 8.96095 14.1971 8.18304 14.3017 7.42857H12.0713C11.9797 7.42857 11.8899 7.40135 11.8137 7.35057L10.4208 6.422L10.9359 5.64937L12.2118 6.5H14.4444C14.5808 5.68483 14.7436 4.90558 14.9328 4.17857H12.5355C12.444 4.17857 12.3542 4.15135 12.278 4.10057L10.8851 3.172L11.4002 2.39937L12.6761 3.25H15.1982C15.631 1.86759 16.171 0.73479 16.8147 0H8.82125C7.97579 0 6.79308 1.19147 5.77867 3.25H7.75212L9.02798 2.39943L9.54304 3.17206L8.15019 4.10063C8.07404 4.15135 7.98426 4.17857 7.89268 4.17857H5.35896C5.06739 4.87918 4.79833 5.65575 4.56573 6.5H6.82361L8.09946 5.64943L8.61453 6.42206L7.22167 7.35063C7.14547 7.40135 7.05569 7.42857 6.96411 7.42857H4.33231C4.16406 8.1611 4.02385 8.93605 3.91996 9.75H5.89498L7.17083 8.89943L7.6859 9.67206L6.29304 10.6006C6.2169 10.6514 6.12712 10.6786 6.03554 10.6786H3.81956C3.75236 11.4256 3.71411 12.1994 3.71411 13H5.89498L7.17083 12.1494L7.6859 12.9221L6.29304 13.8506C6.2169 13.9014 6.12712 13.9286 6.03554 13.9286H3.73251C3.761 14.7316 3.82513 15.5067 3.91996 16.25H6.35926L7.63512 15.3994L8.15019 16.1721L6.75733 17.1006C6.68119 17.1514 6.59141 17.1786 6.49983 17.1786H4.05641C4.21032 18.1012 4.40996 18.9676 4.64268 19.7706V19.5H7.28783L8.56369 18.6494L9.07876 19.4221L7.6859 20.3506C7.60976 20.4014 7.51998 20.4286 7.4284 20.4286H4.84389C5.12473 21.2899 5.44236 22.0676 5.77862 22.75H8.21635L9.4922 21.8994L10.0073 22.6721L8.61441 23.6006C8.53833 23.6514 8.44855 23.6786 8.35697 23.6786H6.28277C7.16753 25.161 8.1127 26 8.82125 26H16.8147C16.3218 25.4375 15.8901 24.6408 15.5203 23.6786H12.9998Z" fill="#F28B30"/>
<path d="M18.5716 19.0353C19.3408 19.0353 19.9644 16.333 19.9644 12.9996C19.9644 9.66615 19.3408 6.96387 18.5716 6.96387C17.8023 6.96387 17.1787 9.66615 17.1787 12.9996C17.1787 16.333 17.8023 19.0353 18.5716 19.0353Z" fill="#F28B30"/>
<path d="M18.5712 0C16.8143 0 14.8569 5.33882 14.8569 13C14.8569 20.6612 16.8143 26 18.5712 26C20.3281 26 22.2855 20.6612 22.2855 13C22.2855 5.33882 20.3281 0 18.5712 0ZM18.5712 19.9643C16.9762 19.9643 16.2498 16.3543 16.2498 13C16.2498 9.64571 16.9762 6.03571 18.5712 6.03571C20.1663 6.03571 20.8926 9.64571 20.8926 13C20.8926 16.3543 20.1663 19.9643 18.5712 19.9643Z" fill="#F28B30"/>
</g>
<defs>
<clipPath id="clip0_97_2514">
<rect width="26" height="26" fill="white"/>
</clipPath>
</defs>
</svg>
