<svg width="131" height="56" viewBox="0 0 131 56" fill="none" xmlns="http://www.w3.org/2000/svg">
<g id="_&#208;&#161;&#208;&#187;&#208;&#190;&#208;&#185;_1">
<path id="Vector" d="M0.0151367 18.936C0.630532 18.4598 1.30076 18.2768 2.08372 18.3021C4.03349 18.3683 5.98325 18.3589 7.93302 18.3778C7.93302 19.4343 7.92997 20.494 7.92693 21.5506C6.8637 21.5569 5.80351 21.579 4.74028 21.5664C3.99388 21.56 3.61611 21.866 3.63135 22.6828C3.65572 23.8845 3.65876 25.0893 3.63135 26.2909C3.61307 26.9753 3.78672 27.1961 4.50569 27.0541C5.6329 26.8334 6.78753 26.7608 7.93302 26.6252C7.93302 27.6754 7.93911 28.7257 7.93911 29.7759C6.96118 30.0093 5.96802 30.1954 5.00532 30.4887C3.78672 30.8609 3.66181 31.0785 3.64353 32.3684C3.63135 33.1538 3.5369 33.958 3.66181 34.7212C4.01521 36.9227 2.06849 37.3106 0.517811 36.5663C0.341114 36.4811 0.182695 36.3613 0.0151367 36.2572V18.936Z" fill="#F28B30"/>
<path id="Vector_2" d="M130.723 23.291C130.811 23.291 130.897 23.3099 130.982 23.3446V32.4783C130.9 32.5098 130.814 32.5256 130.726 32.5319C130.726 29.4506 130.726 26.3724 130.726 23.291H130.723Z" fill="#F9D759"/>
<path id="Vector_3" d="M7.94199 29.779C7.94199 28.7288 7.9359 27.6785 7.9359 26.6283C9.2855 26.4832 10.6442 26.4044 11.9817 26.1741C12.8621 26.0227 13.7822 25.7957 14.5468 25.3541C15.8233 24.6161 15.8385 23.1212 14.5834 22.3327C13.9771 21.9511 13.1759 21.7997 12.4478 21.7366C10.9459 21.6073 9.43478 21.6073 7.92676 21.5537C7.92676 20.4971 7.9298 19.4374 7.93285 18.3809C10.1477 18.4566 12.3716 18.4313 14.5742 18.6521C15.8995 18.7846 17.0267 19.592 17.9193 20.6548C19.8417 22.9382 19.4761 26.1615 17.1029 27.9308C16.9383 28.0538 16.786 28.2052 16.6032 28.2872C15.8782 28.6152 16.2133 28.8802 16.5789 29.2839C17.3984 30.1922 18.3001 31.0784 18.8881 32.1381C19.3938 33.0528 19.6132 34.1787 19.7655 35.2416C19.9026 36.213 19.3938 36.7428 18.5408 36.8721C17.1821 37.074 16.4022 36.7775 16.1919 35.7714C15.3938 32.0025 12.7098 30.6432 9.44392 29.9903C8.94734 29.8926 8.44162 29.8516 7.94199 29.7822V29.779Z" fill="#F28E29"/>
<path id="Vector_4" d="M130.722 23.2918C130.722 26.3732 130.722 29.4514 130.722 32.5327C129.933 35.0716 127.697 36.7684 124.855 36.8535C122.939 36.9103 121.019 36.8315 119.103 36.8125C119.161 36.5192 119.158 36.1849 119.292 35.9358C119.706 35.1725 120.175 34.4408 120.62 33.6933C121.428 33.6807 122.235 33.6902 123.039 33.646C123.84 33.6019 124.654 33.5893 125.434 33.4126C126.716 33.1256 127.298 32.3214 127.307 30.9747C127.323 28.8364 127.271 26.6949 127.326 24.5565C127.356 23.3833 126.823 22.6516 125.848 22.2763C125.202 22.0271 124.486 21.9104 123.795 21.8663C122.637 21.7906 121.476 21.8221 120.316 21.8063C120.334 21.3679 120.139 21.2229 119.712 21.1156C118.963 20.9264 118.887 20.6583 119.481 20.2073C120.041 19.7815 120.014 19.2706 120.014 18.7061C122.168 18.7849 124.367 18.6146 126.466 19.0151C128.633 19.4283 130.314 20.7939 130.719 23.295L130.722 23.2918Z" fill="#F8C005"/>
<path id="Vector_5" d="M34.7391 18.7061C37.2647 18.684 39.8024 18.3497 42.3006 18.9584C43.6167 19.2769 44.7195 20.0149 45.5664 21.1125C46.2489 21.9924 46.6388 22.9764 46.6205 24.1434C46.584 26.3984 46.5139 28.6566 46.6388 30.9053C46.7637 33.1982 45.7035 34.7468 43.9548 35.8033C43.0256 36.3647 41.8862 36.7179 40.8139 36.8157C39.1048 36.9703 37.3744 36.8283 35.65 36.8126C35.5099 36.0714 36.0309 35.6929 36.4543 35.2735C36.8961 34.8351 37.3165 34.403 37.1702 33.6902C38.1786 33.6776 39.187 33.6965 40.1954 33.6461C42.197 33.5483 43.1353 32.539 43.1445 30.5142C43.1536 28.6881 43.1536 26.8652 43.1445 25.0391C43.1353 23.0616 42.1391 21.9798 40.1985 21.8631C39.3942 21.8158 38.5869 21.8284 37.7796 21.8127C38.0751 20.8129 37.0027 20.6205 36.7529 19.9424C36.5457 19.3842 36.1679 19.1792 35.5952 19.2422C35.2113 19.2832 34.7513 19.3463 34.7361 18.7061H34.7391Z" fill="#F39C21"/>
<path id="Vector_6" d="M120.021 18.7053C120.021 19.2698 120.048 19.7839 119.487 20.2065C118.893 20.6575 118.973 20.9256 119.719 21.1148C120.145 21.2221 120.34 21.3672 120.322 21.8056C119.207 21.8213 118.089 21.8245 116.974 21.856C115.853 21.8876 115.716 22.0011 115.71 23.1081C115.691 26.2052 115.691 29.3024 115.71 32.3963C115.716 33.5033 115.85 33.6137 116.971 33.6453C118.187 33.6768 119.405 33.6799 120.624 33.6926C120.176 34.4369 119.71 35.1686 119.296 35.935C119.158 36.1841 119.165 36.5185 119.107 36.8118C117.285 36.8338 115.463 36.8811 113.644 36.8622C112.535 36.8528 112.106 36.3986 112.1 35.2159C112.081 30.2422 112.081 25.2685 112.1 20.2948C112.106 19.1153 112.535 18.658 113.647 18.6485C115.771 18.6327 117.897 18.6832 120.021 18.7053Z" fill="#F7BC0C"/>
<path id="Vector_7" d="M34.7396 18.7061C34.7549 19.3464 35.2149 19.2833 35.5987 19.2423C36.1715 19.1792 36.5493 19.3842 36.7564 19.9425C37.0062 20.6206 38.0786 20.8129 37.7831 21.8127C36.0679 21.8253 34.3527 21.8222 32.6406 21.8569C31.5652 21.879 31.4189 22.024 31.4128 23.1374C31.3946 26.2156 31.3946 29.2938 31.4128 32.3688C31.4189 33.4853 31.5621 33.6241 32.6375 33.6461C34.1486 33.6777 35.6627 33.6745 37.1768 33.6871C37.3231 34.4031 36.9026 34.8351 36.4609 35.2704C36.0374 35.6898 35.5134 36.0683 35.6566 36.8095C33.5637 36.8284 31.4707 36.8536 29.3778 36.8662C28.738 36.8694 28.1927 36.6896 28.0068 35.9485C28.1165 35.6362 28.3237 35.324 28.3237 35.0086C28.345 30.1705 28.345 25.3325 28.3237 20.4944C28.3237 20.179 28.1196 19.8668 28.0099 19.5514C28.1835 18.8008 28.7441 18.6336 29.3747 18.6368C31.1661 18.6462 32.9544 18.6778 34.7457 18.6998L34.7396 18.7061Z" fill="#F39624"/>
<path id="Vector_8" d="M76.7691 30.1607C76.0379 30.3563 75.2946 30.5171 74.5756 30.76C73.8262 31.0091 73.4118 31.5358 73.4575 32.4126C73.4971 33.1979 73.4789 33.9864 73.4636 34.7717C73.4393 36.0838 72.766 36.8848 71.7271 36.8722C70.7035 36.8596 70.0211 36.0491 70.0058 34.7307C69.9815 32.5293 69.9997 30.3248 69.9997 28.1233C69.9997 25.6065 69.9876 23.0897 70.0028 20.5729C70.015 18.9865 70.344 18.6585 71.9038 18.649C72.8147 18.6427 73.7256 18.6869 74.6365 18.709C74.7249 19.5605 75.3707 19.242 75.7912 19.242C78.5117 19.242 78.2954 19.0527 78.2893 21.8156C77.1255 21.8282 75.9618 21.8313 74.798 21.8566C73.747 21.8818 73.5063 22.0773 73.4697 23.096C73.4271 24.2977 73.4667 25.5025 73.4575 26.7072C73.4514 27.2497 73.6129 27.4642 74.1857 27.3065C74.7157 27.1614 75.2793 27.1393 75.8277 27.0605C76.6198 27.6439 76.9641 27.5998 77.3784 26.8681C77.7836 26.846 78.1918 26.8208 78.597 26.7987C78.5361 28.1391 78.3777 29.4196 76.8483 29.8769C76.7996 29.8927 76.7935 30.0661 76.7691 30.1639V30.1607Z" fill="#F5A916"/>
<path id="Vector_9" d="M99.0026 36.8381C97.4885 36.939 95.9926 36.9926 94.5486 36.3114C92.2668 35.2359 90.975 33.4634 90.9019 30.8551C90.844 28.8177 90.838 26.7772 90.9019 24.7429C91.0116 21.3146 93.5615 18.7947 96.998 18.659C97.65 18.6338 98.308 18.7158 98.963 18.7474C99.0849 19.7724 99.2067 20.7942 99.3286 21.8192C98.634 21.876 97.9424 21.9486 97.2478 21.9896C95.5387 22.0968 94.6644 23.0051 94.6461 24.765C94.6248 26.7519 94.6309 28.7389 94.6461 30.729C94.6583 32.4005 95.295 33.2174 96.9005 33.517C97.6896 33.6653 98.503 33.6589 99.3073 33.722C99.2067 34.7597 99.1062 35.7973 99.0026 36.8381Z" fill="#F6B20F"/>
<path id="Vector_10" d="M57.2773 21.8158C56.6223 21.8284 55.9673 21.8221 55.3123 21.8631C53.5057 21.9735 52.4395 23.1152 52.4242 24.9634C52.412 26.7895 52.4151 28.6156 52.4242 30.4417C52.4334 32.5327 53.454 33.6114 55.4616 33.6776C55.8637 33.6902 56.2659 33.706 56.6711 33.7217C56.6711 34.7625 56.6711 35.8002 56.6711 36.8409C54.8645 37.0522 53.1371 36.8536 51.559 35.8348C50.0205 34.8414 49.003 33.4978 48.8994 31.5519C49.0517 31.3311 49.3351 31.1135 49.3381 30.8927C49.3716 28.6724 49.3655 26.452 49.3381 24.2317C49.3381 24.033 49.1066 23.8374 48.9817 23.6387C49.067 21.2418 51.559 18.9205 54.7213 18.6714C55.5682 18.6051 56.4273 18.6903 57.2773 18.7061C57.2773 19.7437 57.2773 20.7813 57.2773 21.8158Z" fill="#F49F1C"/>
<path id="Vector_11" d="M78.2895 21.8095C78.2956 19.0467 78.5119 19.239 75.7913 19.2359C75.3709 19.2359 74.7251 19.5544 74.6367 18.7029C77.4121 18.6871 80.1905 18.624 82.9659 18.6745C84.6415 18.706 86.1007 19.4661 87.3102 20.6362C89.4245 22.6799 89.1655 26.2407 86.8441 28.0479C85.7595 28.8899 84.5135 29.3315 83.2218 29.5144C81.0831 29.8172 78.9201 29.9528 76.7662 30.1578C76.7906 30.06 76.7967 29.8866 76.8454 29.8708C78.3748 29.4135 78.5302 28.1362 78.5941 26.7926C79.6421 26.6822 80.6962 26.6191 81.7351 26.4457C82.5211 26.3132 83.3376 26.1587 84.0474 25.8086C85.5493 25.0737 85.6316 23.3675 84.1875 22.5159C83.5234 22.1217 82.6856 21.9451 81.9087 21.8725C80.7115 21.759 79.499 21.8189 78.2895 21.8063V21.8095Z" fill="#F6AD14"/>
<path id="Vector_12" d="M25.618 27.8804C25.618 30.1355 25.6301 32.3905 25.6119 34.6455C25.5997 36.0648 24.9081 36.8942 23.8144 36.869C22.7024 36.8469 21.9926 36.0269 21.9896 34.6298C21.9713 30.0661 21.9835 25.5055 21.9835 20.9419C21.9835 20.7337 21.9682 20.5192 22.0018 20.3142C22.1784 19.2924 22.9584 18.6111 23.9058 18.6395C24.8289 18.6679 25.5875 19.4185 25.6027 20.4846C25.6423 22.9477 25.6149 25.4141 25.6149 27.8773H25.618V27.8804Z" fill="#F29429"/>
<path id="Vector_13" d="M61.9388 29.366C60.6227 29.366 59.3036 29.3912 57.9875 29.3565C57.0034 29.3313 56.4277 28.7573 56.3759 27.8616C56.321 26.9344 56.9517 26.1963 57.9875 26.1806C60.7232 26.1364 63.459 26.1364 66.1948 26.1806C67.1879 26.1963 67.6815 26.8082 67.6845 27.7764C67.6845 28.7605 67.2032 29.325 66.1948 29.3565C64.7781 29.4007 63.3585 29.3692 61.9388 29.3692V29.366Z" fill="#F4A318"/>
<path id="Vector_14" d="M104.106 29.3687C102.838 29.3687 101.571 29.3845 100.304 29.3624C99.2677 29.3435 98.503 28.7159 98.4573 27.899C98.4055 26.9781 99.1641 26.1833 100.227 26.1707C102.863 26.1423 105.501 26.1423 108.136 26.1707C109.199 26.1833 109.955 26.9749 109.903 27.899C109.857 28.7159 109.093 29.3467 108.06 29.3656C106.741 29.3877 105.425 29.3719 104.106 29.3687Z" fill="#F7B60A"/>
<path id="Vector_15" d="M56.6653 36.8376C56.6653 35.7968 56.6653 34.7592 56.6653 33.7184C59.7423 33.7027 62.8223 33.6743 65.8993 33.6806C66.9534 33.6806 67.4621 34.0559 67.6449 34.8191C67.9252 35.9861 67.2854 36.8723 66.0516 36.8786C62.9228 36.8944 59.7941 36.8566 56.6653 36.8376Z" fill="#F4A317"/>
<path id="Vector_16" d="M99.3251 21.8187C99.2032 20.7937 99.0813 19.7719 98.9595 18.7469C102.046 18.7122 105.132 18.6522 108.218 18.6554C109.19 18.6554 109.906 19.4407 109.903 20.3143C109.899 21.2006 109.235 21.8345 108.145 21.8408C105.205 21.8597 102.265 21.8282 99.3251 21.8187Z" fill="#F7B60A"/>
<path id="Vector_17" d="M99.0024 36.8382C99.103 35.8006 99.2035 34.763 99.3071 33.7222C102.244 33.7064 105.178 33.6749 108.115 33.6875C109.208 33.6938 109.885 34.3151 109.903 35.1919C109.924 36.1349 109.187 36.8792 108.115 36.8792C105.077 36.8855 102.04 36.854 99.0055 36.8351L99.0024 36.8382Z" fill="#F7B50A"/>
<path id="Vector_18" d="M57.2773 21.8159C57.2773 20.7783 57.2773 19.7407 57.2773 18.7062C60.1654 18.6841 63.0535 18.6368 65.9447 18.6526C67.1511 18.6589 67.7238 19.2739 67.6873 20.3273C67.6538 21.3018 67.1145 21.838 65.9508 21.8443C63.0596 21.8664 60.1715 21.8285 57.2804 21.8159H57.2773Z" fill="#F4A51C"/>
<path id="Vector_19" d="M28.0033 19.5576C28.113 19.873 28.3141 20.1852 28.3171 20.5006C28.3385 25.3387 28.3385 30.1768 28.3171 35.0148C28.3171 35.3271 28.11 35.6425 28.0003 35.9547C27.9211 35.6708 27.7749 35.387 27.7749 35.1031C27.7596 30.2052 27.7596 25.3072 27.7749 20.4123C27.7749 20.1285 27.9241 19.8446 28.0033 19.5608V19.5576Z" fill="#F6A648"/>
<path id="Vector_20" d="M48.9758 23.6348C49.1007 23.8303 49.3292 24.029 49.3322 24.2277C49.3597 26.448 49.3627 28.6684 49.3322 30.8887C49.3292 31.1095 49.0459 31.3271 48.8936 31.5479C48.921 28.9112 48.9484 26.2746 48.9758 23.6379V23.6348Z" fill="#F5A735"/>
<path id="Vector_21" d="M75.8245 27.0576C76.3424 26.9945 76.8572 26.9315 77.3751 26.8652C76.9608 27.5969 76.6166 27.6379 75.8245 27.0576Z" fill="#F6AD14"/>
</g>
</svg>
