<svg width="41" height="41" viewBox="0 0 41 41" fill="none" xmlns="http://www.w3.org/2000/svg">
<g id="charging_5945741">
<g id="Layer 68">
<path id="Vector" d="M30.668 2.08203H10.168C8.00221 2.08373 5.92564 2.94482 4.39422 4.47625C2.86279 6.00767 2.0017 8.08424 2 10.25V30.75C2.0017 32.9158 2.86279 34.9923 4.39422 36.5238C5.92564 38.0552 8.00221 38.9163 10.168 38.918H30.668C32.8337 38.9163 34.9103 38.0552 36.4417 36.5238C37.9731 34.9923 38.8342 32.9158 38.8359 30.75V10.25C38.8342 8.08424 37.9731 6.00767 36.4417 4.47625C34.9103 2.94482 32.8337 2.08373 30.668 2.08203ZM17.0739 7.20703H23.762C23.8895 7.20703 24.0117 7.25765 24.1018 7.34776C24.1919 7.43786 24.2425 7.56007 24.2425 7.6875C24.2425 7.81493 24.1919 7.93714 24.1018 8.02724C24.0117 8.11735 23.8895 8.16797 23.762 8.16797H17.0739C16.9465 8.16797 16.8243 8.11735 16.7342 8.02724C16.6441 7.93714 16.5934 7.81493 16.5934 7.6875C16.5934 7.56007 16.6441 7.43786 16.7342 7.34776C16.8243 7.25765 16.9465 7.20703 17.0739 7.20703ZM28.7461 31.3906C28.7461 32.0278 28.493 32.6388 28.0425 33.0893C27.5919 33.5399 26.9809 33.793 26.3437 33.793H14.4666C13.8339 33.7862 13.2294 33.5301 12.7844 33.0803C12.3394 32.6305 12.0898 32.0233 12.0898 31.3906V12.0373C12.0865 11.7219 12.1453 11.4088 12.2629 11.116C12.3805 10.8233 12.5546 10.5565 12.7753 10.3311C12.996 10.1056 13.259 9.92584 13.5492 9.80201C13.8393 9.67818 14.1511 9.61272 14.4666 9.60937H26.3694C26.6849 9.61272 26.9966 9.67818 27.2868 9.80201C27.577 9.92584 27.8399 10.1056 28.0606 10.3311C28.2813 10.5565 28.4555 10.8233 28.5731 11.116C28.6907 11.4088 28.7495 11.7219 28.7461 12.0373V31.3906Z" fill="#F28B30"/>
<path id="Vector_2" d="M24.9023 20.5833C24.8656 20.4945 24.8035 20.4185 24.7237 20.3649C24.6439 20.3113 24.55 20.2826 24.4539 20.2822H22.4231L24.5115 15.8427C24.5491 15.7716 24.5687 15.6925 24.5687 15.6121C24.5687 15.5317 24.5491 15.4525 24.5115 15.3815C24.4679 15.3123 24.4074 15.2554 24.3356 15.2161C24.2639 15.1769 24.1833 15.1566 24.1015 15.1572H18.81C18.7188 15.1578 18.6297 15.1839 18.5527 15.2326C18.4757 15.2813 18.4139 15.3506 18.3743 15.4327L15.9656 20.5577C15.9311 20.6309 15.9159 20.7118 15.9215 20.7925C15.9272 20.8732 15.9533 20.9512 15.9976 21.019C16.0415 21.0864 16.1012 21.1421 16.1716 21.1812C16.2419 21.2203 16.3207 21.2416 16.4012 21.2432H17.6825L15.9335 27.989C15.9083 28.0889 15.9159 28.1943 15.9552 28.2896C15.9945 28.3849 16.0634 28.4651 16.1517 28.5182C16.2401 28.5714 16.3431 28.5947 16.4457 28.5847C16.5483 28.5748 16.645 28.5321 16.7215 28.463L24.755 21.1407C24.8357 21.0756 24.8935 20.9864 24.92 20.8862C24.9465 20.7859 24.9403 20.6798 24.9023 20.5833Z" fill="#F28B30"/>
</g>
</g>
</svg>
