<svg width="42" height="42" viewBox="0 0 42 42" fill="none" xmlns="http://www.w3.org/2000/svg">
<g id="dashboard_8078295">
<path id="Vector" d="M21.9053 23.5673L21.8913 23.548C21.6523 23.3467 21.3438 23.2477 21.0323 23.2722C20.7209 23.2968 20.4316 23.443 20.2272 23.6793C20.0228 23.9155 19.9196 24.2227 19.94 24.5345C19.9605 24.8462 20.1028 25.1374 20.3363 25.3449C20.5698 25.5525 20.8757 25.6597 21.1876 25.6434C21.4996 25.6272 21.7926 25.4887 22.0033 25.258C22.2139 25.0273 22.3252 24.7229 22.3131 24.4107C22.301 24.0985 22.1664 23.8037 21.9385 23.59C21.928 23.5795 21.914 23.5778 21.9053 23.5673Z" fill="#F28B30"/>
<path id="Vector_2" d="M31.5 2.1875H10.5C8.29624 2.19028 6.18354 3.06695 4.62524 4.62524C3.06695 6.18354 2.19028 8.29624 2.1875 10.5V31.5C2.19028 33.7038 3.06695 35.8165 4.62524 37.3748C6.18354 38.9331 8.29624 39.8097 10.5 39.8125H31.5C33.7038 39.8097 35.8165 38.9331 37.3748 37.3748C38.9331 35.8165 39.8097 33.7038 39.8125 31.5V10.5C39.8097 8.29624 38.9331 6.18354 37.3748 4.62524C35.8165 3.06695 33.7038 2.19028 31.5 2.1875ZM10.0625 21C10.0625 21.3481 9.92422 21.6819 9.67808 21.9281C9.43194 22.1742 9.0981 22.3125 8.75 22.3125C8.4019 22.3125 8.06806 22.1742 7.82192 21.9281C7.57578 21.6819 7.4375 21.3481 7.4375 21C7.44167 17.4043 8.87191 13.957 11.4145 11.4145C13.957 8.87191 17.4043 7.44167 21 7.4375C22.7975 7.43259 24.5777 7.78969 26.2343 8.4875C26.3972 8.55147 26.5457 8.6474 26.6711 8.76963C26.7964 8.89187 26.896 9.03794 26.964 9.19925C27.032 9.36056 27.0671 9.53385 27.0672 9.70892C27.0672 9.88399 27.0322 10.0573 26.9643 10.2186C26.8963 10.38 26.7968 10.5261 26.6715 10.6484C26.5462 10.7707 26.3978 10.8667 26.2348 10.9307C26.0719 10.9948 25.8978 11.0256 25.7228 11.0214C25.5478 11.0171 25.3754 10.9779 25.2158 10.906C23.8812 10.3453 22.4476 10.0584 21 10.0625C18.1002 10.0657 15.3201 11.2191 13.2696 13.2696C11.2191 15.3201 10.0657 18.1002 10.0625 21ZM32.4398 14.6353L24.5175 22.7658C24.7902 23.3034 24.934 23.8972 24.9375 24.5C24.9375 25.2788 24.7066 26.04 24.2739 26.6876C23.8413 27.3351 23.2263 27.8398 22.5068 28.1378C21.7873 28.4358 20.9956 28.5138 20.2318 28.3618C19.468 28.2099 18.7664 27.8349 18.2158 27.2842C17.6651 26.7336 17.2901 26.032 17.1382 25.2682C16.9862 24.5044 17.0642 23.7127 17.3622 22.9932C17.6602 22.2737 18.1649 21.6587 18.8124 21.2261C19.46 20.7934 20.2212 20.5625 21 20.5625C21.5669 20.565 22.1265 20.691 22.6398 20.9318L30.5602 12.803C30.8043 12.5585 31.1348 12.4201 31.4802 12.4178C31.8256 12.4154 32.158 12.5493 32.4053 12.7904C32.6527 13.0315 32.795 13.3604 32.8014 13.7058C32.8079 14.0511 32.6779 14.3851 32.4398 14.6353Z" fill="#F28B30"/>
</g>
</svg>
