<svg width="37" height="36" viewBox="0 0 37 36" fill="none" xmlns="http://www.w3.org/2000/svg">
<g id="Group">
<path id="Vector" d="M36.8685 29.8406L32.4215 11.9777C31.9366 10.031 30.1979 8.67166 28.1919 8.67166H22.8328C25.5093 5.11619 22.9592 0 18.4999 0C14.0333 0 11.4961 5.12356 14.167 8.67166H8.85781C6.85685 8.67166 5.11886 10.0266 4.63035 11.9662L0.134053 29.829C-0.558613 32.5815 1.52018 35.2524 4.3608 35.2524H32.639C35.4727 35.2524 37.554 32.5914 36.8685 29.8406ZM18.4999 2.16797C20.2927 2.16797 21.7517 3.62694 21.7517 5.41985C21.7517 7.21276 20.2928 8.67173 18.4999 8.67173C16.7069 8.67173 15.248 7.21276 15.248 5.41985C15.248 3.62694 16.7069 2.16797 18.4999 2.16797ZM16.277 26.8337C15.8648 27.2613 15.1785 27.2789 14.7444 26.8611L11.8574 24.0754V26.0807C11.8574 26.679 11.3718 27.1646 10.7734 27.1646C10.1743 27.1646 9.68945 26.679 9.68945 26.0807V17.8434C9.68945 17.2443 10.1743 16.7594 10.7734 16.7594C11.3718 16.7594 11.8574 17.2443 11.8574 17.8434V19.5517L14.4712 17.1489C14.912 16.7442 15.5978 16.7731 16.0024 17.2132C16.4078 17.6541 16.3789 18.3399 15.9381 18.7452L12.6176 21.7969L16.2496 25.301C16.6803 25.7165 16.6926 26.4023 16.277 26.8337ZM22.6709 27.1646C19.802 27.1646 17.4679 24.8305 17.4679 21.9617C17.4679 17.7924 22.1491 15.3291 25.5802 17.6483C26.0767 17.9836 26.2068 18.6571 25.8722 19.1535C25.5369 19.6492 24.8626 19.78 24.3669 19.4447C22.3703 18.0955 19.6358 19.5268 19.6358 21.9617C19.6358 25.0864 24.1403 26.3841 25.0079 23.0457H23.762C23.1637 23.0457 22.678 22.5608 22.678 21.9617C22.678 21.3633 23.1637 20.8777 23.762 20.8777H26.2262C26.8253 20.8777 27.3102 21.3633 27.3102 21.9617C27.3102 25.0249 25.4025 27.1646 22.6709 27.1646Z" fill="#F28B30"/>
</g>
</svg>
