<svg width="36" height="36" viewBox="0 0 36 36" fill="none" xmlns="http://www.w3.org/2000/svg">
<g id="tire_950472" clip-path="url(#clip0_351_4510)">
<g id="Group">
<g id="Group_2">
<path id="Vector" d="M17.9997 32.7857C17.8729 32.7857 17.7486 32.748 17.6431 32.6777L15.7145 31.392L16.4277 30.3222L18.1943 31.5H21.0436C20.734 30.5111 20.4632 29.4322 20.2341 28.2857H16.714C16.5872 28.2857 16.4629 28.248 16.3574 28.1777L14.4288 26.892L15.142 25.8222L16.9086 27H19.9999C19.8265 25.9636 19.6841 24.8867 19.5735 23.7857H16.0711C15.9443 23.7857 15.82 23.748 15.7145 23.6777L13.786 22.392L14.4991 21.3222L16.2658 22.5H19.4587C19.3768 21.4376 19.3247 20.3612 19.3012 19.2857H16.0711C15.9443 19.2857 15.82 19.248 15.7145 19.1777L13.786 17.892L14.4991 16.8222L16.2658 18H19.2854C19.2854 16.9308 19.3164 15.8545 19.3748 14.7857H16.0711C15.9443 14.7857 15.82 14.748 15.7145 14.6777L13.786 13.392L14.4991 12.3222L16.2658 13.5H19.4587C19.5429 12.4075 19.6575 11.3304 19.8023 10.2857H16.714C16.5872 10.2857 16.4629 10.248 16.3574 10.1777L14.4288 8.892L15.142 7.82221L16.9086 9H19.9999C20.1887 7.8713 20.4142 6.79235 20.6762 5.78571H17.3569C17.2301 5.78571 17.1057 5.74803 17.0002 5.67771L15.0717 4.392L15.7848 3.32221L17.5515 4.5H21.0436C21.643 2.58589 22.3905 1.0174 23.2819 0H12.214C11.0434 0 9.40577 1.64973 8.0012 4.5H10.7337L12.5002 3.32229L13.2134 4.39208L11.2848 5.67779C11.1794 5.74803 11.0551 5.78571 10.9283 5.78571H7.42006C7.01635 6.75579 6.64381 7.83104 6.32174 9H9.44803L11.2146 7.82229L11.9278 8.89208L9.9992 10.1778C9.89369 10.248 9.76938 10.2857 9.64258 10.2857H5.99854C5.76559 11.3 5.57144 12.373 5.4276 13.5H8.16224L9.92881 12.3223L10.642 13.3921L8.71341 14.6778C8.60798 14.748 8.48367 14.7857 8.35686 14.7857H5.28859C5.19553 15.8201 5.14258 16.8915 5.14258 18H8.16224L9.92881 16.8223L10.642 17.8921L8.71341 19.1778C8.60798 19.248 8.48367 19.2857 8.35686 19.2857H5.16805C5.20751 20.3976 5.2963 21.4709 5.4276 22.5H8.8051L10.5717 21.3223L11.2848 22.3921L9.35627 23.6778C9.25084 23.748 9.12652 23.7857 8.99972 23.7857H5.61652C5.82963 25.0632 6.10606 26.2628 6.42829 27.3747V27H10.0908L11.8574 25.8223L12.5706 26.8921L10.642 28.1778C10.5366 28.248 10.4122 28.2857 10.2854 28.2857H6.70689C7.09574 29.4784 7.53553 30.5552 8.00112 31.5H11.3764L13.143 30.3223L13.8562 31.3921L11.9276 32.6778C11.8223 32.748 11.698 32.7857 11.5711 32.7857H8.69919C9.92423 34.8383 11.2329 36 12.214 36H23.2819C22.5994 35.2211 22.0017 34.118 21.4895 32.7857H17.9997Z" fill="#F28B30"/>
</g>
</g>
<g id="Group_3">
<g id="Group_4">
<path id="Vector_2" d="M25.7142 26.3569C26.7793 26.3569 27.6428 22.6152 27.6428 17.9997C27.6428 13.3842 26.7793 9.64258 25.7142 9.64258C24.6491 9.64258 23.7856 13.3842 23.7856 17.9997C23.7856 22.6152 24.6491 26.3569 25.7142 26.3569Z" fill="#F28B30"/>
</g>
</g>
<g id="Group_5">
<g id="Group_6">
<path id="Vector_3" d="M25.7141 0C23.2815 0 20.5713 7.39221 20.5713 18C20.5713 28.6078 23.2815 36 25.7141 36C28.1468 36 30.857 28.6078 30.857 18C30.857 7.39221 28.1468 0 25.7141 0ZM25.7141 27.6429C23.5056 27.6429 22.4999 22.6444 22.4999 18C22.4999 13.3556 23.5056 8.35714 25.7141 8.35714C27.9227 8.35714 28.9284 13.3556 28.9284 18C28.9284 22.6444 27.9227 27.6429 25.7141 27.6429Z" fill="#F28B30"/>
</g>
</g>
</g>
<defs>
<clipPath id="clip0_351_4510">
<rect width="36" height="36" fill="white"/>
</clipPath>
</defs>
</svg>
